<?xml version="1.0" encoding="UTF-8"?>
<svg version="1.1" xmlns="http://www.w3.org/2000/svg" width="512" height="512">
<path d="M0 0 C0.75829102 0.12890625 1.51658203 0.2578125 2.29785156 0.390625 C33.19269542 5.75716 78.66061101 16.78166341 98.6328125 43.3046875 C104.97144799 52.63015358 107.31297993 64.51103768 109.48046875 75.3984375 C109.69519333 76.47695984 109.90991791 77.55548218 110.13114929 78.66668701 C112.30558117 89.98792989 113.69596715 101.37253429 114.94067383 112.828125 C115.31999857 116.31900851 115.71444089 119.80794808 116.11132812 123.296875 C116.36282179 125.53636387 116.61350512 127.77594392 116.86328125 130.015625 C116.97883865 131.04882874 117.09439606 132.08203247 117.2134552 133.14654541 C117.31744125 134.10655457 117.42142731 135.06656372 117.52856445 136.05566406 C117.66582695 137.31156342 117.66582695 137.31156342 117.80586243 138.59283447 C118.00585163 141.07255594 118.03344107 143.51334249 118 146 C119.11375 146.103125 120.2275 146.20625 121.375 146.3125 C123.169375 146.6528125 123.169375 146.6528125 125 147 C127.18448291 150.27672437 127.25614946 151.19587839 127.265625 154.9921875 C127.26965332 156.06436523 127.27368164 157.13654297 127.27783203 158.24121094 C127.26864746 159.44036133 127.25946289 160.63951172 127.25 161.875 C127.24202393 163.77427246 127.24202393 163.77427246 127.23388672 165.71191406 C127.12876454 179.72986312 126.61890307 193.74152516 126.125 207.75 C126.08588501 208.92205994 126.04677002 210.09411987 126.00646973 211.30169678 C125.89096703 214.69632459 125.76369719 218.09030914 125.6328125 221.484375 C125.59936737 222.49700409 125.56592224 223.50963318 125.53146362 224.552948 C124.99976107 237.41493886 124.99976107 237.41493886 123 243 C119.55549263 245.29633824 117.06187717 245.54016485 113 246 C112.80447289 246.81089333 112.80447289 246.81089333 112.60499573 247.63816833 C99.3246314 302.67376665 99.3246314 302.67376665 92 328 C91.73026367 328.94262695 91.46052734 329.88525391 91.18261719 330.85644531 C84.57403619 353.57933537 70.94660768 372.9058425 55.35449219 390.47363281 C54.44631441 391.4970516 53.54335591 392.52512424 52.64550781 393.55761719 C35.41901436 413.36374393 18.52543795 423.07546357 -8 425 C-15.32131705 425.32126252 -22.6462409 425.33019155 -29.97338867 425.31567383 C-33.29704668 425.31251469 -36.61981058 425.33606238 -39.94335938 425.36132812 C-50.05668928 425.39277767 -60.01965175 425.16555716 -70.04296875 423.73046875 C-71.21234734 423.56832634 -71.21234734 423.56832634 -72.40534973 423.40290833 C-99.40113745 418.98723157 -121.03872799 389.75864433 -136 369 C-144.10578044 357.43862805 -150.67254078 345.46780025 -154.6875 331.875 C-155.01218262 330.79806885 -155.33686523 329.7211377 -155.67138672 328.61157227 C-160.91935284 310.8750068 -165.44970253 292.92548426 -170 275 C-170.18298645 274.28007874 -170.3659729 273.56015747 -170.55450439 272.81842041 C-171.61636023 268.63316603 -172.65959442 264.4437142 -173.6875 260.25 C-173.93129395 259.27023193 -174.17508789 258.29046387 -174.42626953 257.28100586 C-175.5106978 252.75737912 -176.28737209 248.69115518 -176 244 C-176.67546875 244.04640625 -177.3509375 244.0928125 -178.046875 244.140625 C-185.26109484 244.43252985 -185.26109484 244.43252985 -188.5625 242.5 C-192.07383318 236.3933336 -191.2748315 227.57566263 -191.53515625 220.6796875 C-191.5784053 219.59442276 -191.62165436 218.50915802 -191.66621399 217.39100647 C-191.80353121 213.88584656 -191.93422695 210.3805021 -192.0625 206.875 C-192.106026 205.68713898 -192.149552 204.49927795 -192.19439697 203.27542114 C-193.22638508 174.69273411 -193.22638508 174.69273411 -193.375 160.9375 C-193.40086182 159.74688965 -193.42672363 158.5562793 -193.45336914 157.32958984 C-193.4558667 156.26047363 -193.45836426 155.19135742 -193.4609375 154.08984375 C-193.46915527 153.19128662 -193.47737305 152.29272949 -193.48583984 151.36694336 C-192.83216928 148.18235236 -191.53149788 146.97636479 -189 145 C-185.75 144.75 -185.75 144.75 -183 145 C-181.99218156 141.97654469 -181.69419551 139.47301283 -181.421875 136.3046875 C-173.99830243 54.14935705 -173.99830243 54.14935705 -158 38 C-155.83052946 36.22653038 -153.54640755 34.69680364 -151.1875 33.1875 C-150.19919189 32.54748047 -150.19919189 32.54748047 -149.19091797 31.89453125 C-147.13731505 30.57960293 -145.07131035 29.28682077 -143 28 C-142.08130127 27.42113037 -142.08130127 27.42113037 -141.14404297 26.83056641 C-116.06037412 11.21012743 -86.21046157 2.43081507 -57 -1 C-56.26144775 -1.0935376 -55.52289551 -1.1870752 -54.76196289 -1.28344727 C-36.95806878 -3.33907565 -17.6686166 -3.11251839 0 0 Z M-182 151 C-182 154.63 -182 158.26 -182 162 C-181.67 162 -181.34 162 -181 162 C-181 158.37 -181 154.74 -181 151 C-181.33 151 -181.66 151 -182 151 Z M-181 169 C-180 173 -180 173 -180 173 Z " fill="#FEC007" transform="translate(289,55)"/>
<path d="M0 0 C0.75829102 0.12890625 1.51658203 0.2578125 2.29785156 0.390625 C33.19269542 5.75716 78.66061101 16.78166341 98.6328125 43.3046875 C104.97144799 52.63015358 107.31297993 64.51103768 109.48046875 75.3984375 C109.69519333 76.47695984 109.90991791 77.55548218 110.13114929 78.66668701 C112.30558117 89.98792989 113.69596715 101.37253429 114.94067383 112.828125 C115.31999857 116.31900851 115.71444089 119.80794808 116.11132812 123.296875 C116.36282179 125.53636387 116.61350512 127.77594392 116.86328125 130.015625 C116.97883865 131.04882874 117.09439606 132.08203247 117.2134552 133.14654541 C117.31744125 134.10655457 117.42142731 135.06656372 117.52856445 136.05566406 C117.66582695 137.31156342 117.66582695 137.31156342 117.80586243 138.59283447 C118.00585163 141.07255594 118.03344107 143.51334249 118 146 C119.11375 146.103125 120.2275 146.20625 121.375 146.3125 C123.169375 146.6528125 123.169375 146.6528125 125 147 C127.18448291 150.27672437 127.25614946 151.19587839 127.265625 154.9921875 C127.26965332 156.06436523 127.27368164 157.13654297 127.27783203 158.24121094 C127.26864746 159.44036133 127.25946289 160.63951172 127.25 161.875 C127.24202393 163.77427246 127.24202393 163.77427246 127.23388672 165.71191406 C127.12876454 179.72986312 126.61890307 193.74152516 126.125 207.75 C126.08588501 208.92205994 126.04677002 210.09411987 126.00646973 211.30169678 C125.89096703 214.69632459 125.76369719 218.09030914 125.6328125 221.484375 C125.59936737 222.49700409 125.56592224 223.50963318 125.53146362 224.552948 C124.99976107 237.41493886 124.99976107 237.41493886 123 243 C119.55549263 245.29633824 117.06187717 245.54016485 113 246 C112.80447289 246.81089333 112.80447289 246.81089333 112.60499573 247.63816833 C99.3246314 302.67376665 99.3246314 302.67376665 92 328 C91.73026367 328.94262695 91.46052734 329.88525391 91.18261719 330.85644531 C84.57403619 353.57933537 70.94660768 372.9058425 55.35449219 390.47363281 C54.44631441 391.4970516 53.54335591 392.52512424 52.64550781 393.55761719 C35.41901436 413.36374393 18.52543795 423.07546357 -8 425 C-15.32131705 425.32126252 -22.6462409 425.33019155 -29.97338867 425.31567383 C-33.29704668 425.31251469 -36.61981058 425.33606238 -39.94335938 425.36132812 C-50.05668928 425.39277767 -60.01965175 425.16555716 -70.04296875 423.73046875 C-71.21234734 423.56832634 -71.21234734 423.56832634 -72.40534973 423.40290833 C-99.40113745 418.98723157 -121.03872799 389.75864433 -136 369 C-144.10578044 357.43862805 -150.67254078 345.46780025 -154.6875 331.875 C-155.01218262 330.79806885 -155.33686523 329.7211377 -155.67138672 328.61157227 C-160.91935284 310.8750068 -165.44970253 292.92548426 -170 275 C-170.18298645 274.28007874 -170.3659729 273.56015747 -170.55450439 272.81842041 C-171.61636023 268.63316603 -172.65959442 264.4437142 -173.6875 260.25 C-173.93129395 259.27023193 -174.17508789 258.29046387 -174.42626953 257.28100586 C-175.5106978 252.75737912 -176.28737209 248.69115518 -176 244 C-176.67546875 244.04640625 -177.3509375 244.0928125 -178.046875 244.140625 C-185.26109484 244.43252985 -185.26109484 244.43252985 -188.5625 242.5 C-192.07383318 236.3933336 -191.2748315 227.57566263 -191.53515625 220.6796875 C-191.5784053 219.59442276 -191.62165436 218.50915802 -191.66621399 217.39100647 C-191.80353121 213.88584656 -191.93422695 210.3805021 -192.0625 206.875 C-192.106026 205.68713898 -192.149552 204.49927795 -192.19439697 203.27542114 C-193.22638508 174.69273411 -193.22638508 174.69273411 -193.375 160.9375 C-193.40086182 159.74688965 -193.42672363 158.5562793 -193.45336914 157.32958984 C-193.4558667 156.26047363 -193.45836426 155.19135742 -193.4609375 154.08984375 C-193.46915527 153.19128662 -193.47737305 152.29272949 -193.48583984 151.36694336 C-192.83216928 148.18235236 -191.53149788 146.97636479 -189 145 C-185.75 144.75 -185.75 144.75 -183 145 C-181.99218156 141.97654469 -181.69419551 139.47301283 -181.421875 136.3046875 C-173.99830243 54.14935705 -173.99830243 54.14935705 -158 38 C-155.83052946 36.22653038 -153.54640755 34.69680364 -151.1875 33.1875 C-150.19919189 32.54748047 -150.19919189 32.54748047 -149.19091797 31.89453125 C-147.13731505 30.57960293 -145.07131035 29.28682077 -143 28 C-142.08130127 27.42113037 -142.08130127 27.42113037 -141.14404297 26.83056641 C-116.06037412 11.21012743 -86.21046157 2.43081507 -57 -1 C-56.26144775 -1.0935376 -55.52289551 -1.1870752 -54.76196289 -1.28344727 C-36.95806878 -3.33907565 -17.6686166 -3.11251839 0 0 Z M-88.203125 33.28515625 C-89.41464233 33.70462524 -89.41464233 33.70462524 -90.65063477 34.13256836 C-91.50842529 34.4394458 -92.36621582 34.74632324 -93.25 35.0625 C-94.1380835 35.37904541 -95.02616699 35.69559082 -95.94116211 36.02172852 C-114.17190754 42.61443877 -128.84496163 50.32631402 -142 65 C-142.54197021 65.545354 -143.08394043 66.09070801 -143.64233398 66.65258789 C-149.08740379 72.745249 -148.73685646 78.5656899 -148.4375 86.4375 C-148.41880859 87.57509766 -148.40011719 88.71269531 -148.38085938 89.88476562 C-148.30000463 93.92531751 -148.15646418 97.96185807 -148 102 C-147.96711884 102.87458862 -147.93423767 103.74917725 -147.90036011 104.65026855 C-147.52838819 114.48838275 -147.14570711 124.32510897 -146.63208008 134.15698242 C-143.61874638 192.87467352 -143.61874638 192.87467352 -156.99609375 219.96044922 C-158.23451616 223.71005014 -157.80454049 226.17020729 -157 230 C-156.79761719 231.12019531 -156.59523437 232.24039063 -156.38671875 233.39453125 C-156.15597656 234.52246094 -155.92523438 235.65039062 -155.6875 236.8125 C-155.46449219 237.93269531 -155.24148437 239.05289063 -155.01171875 240.20703125 C-152.6045497 249.23159167 -148.61769793 256.67080585 -143.5 264.4375 C-142.24054272 266.38259065 -140.98143399 268.32790702 -139.72265625 270.2734375 C-139.09504395 271.23733398 -138.46743164 272.20123047 -137.82080078 273.19433594 C-135.15909028 277.29575416 -132.54489818 281.42641551 -129.9375 285.5625 C-129.45998291 286.31789063 -128.98246582 287.07328125 -128.49047852 287.8515625 C-124.0318047 294.91740797 -119.64239283 302.02601008 -115.27514648 309.14868164 C-114.76024658 309.98520264 -114.24534668 310.82172363 -113.71484375 311.68359375 C-113.03603149 312.79045532 -113.03603149 312.79045532 -112.34350586 313.91967773 C-111.01108355 316.04567754 -111.01108355 316.04567754 -109.37597656 318.109375 C-103.3684622 326.3638447 -105.03089728 344.48906379 -106.30322266 354.35009766 C-106.78401233 357.31108151 -107.34084284 360.2525319 -107.91918945 363.19580078 C-109.53112377 371.43501223 -110.43015559 378.52411244 -106 386 C-104.12226232 388.04690324 -102.15995629 389.96004128 -100.140625 391.8671875 C-96.71549887 395.27981317 -93.87326087 399.12109782 -91 403 C-86.44518038 402.58487629 -83.17846125 401.68304196 -79.19059753 399.46949768 C-65.92007707 392.51920654 -50.1886271 393.90799397 -35.62719727 394.0324707 C-31.52140797 394.06667885 -27.41940326 394.03274243 -23.31391716 393.98121071 C-7.07729323 393.80709861 7.64169866 393.72952617 22.42651367 401.38061523 C25.7763878 403.21390766 25.7763878 403.21390766 28.83129883 402.91748047 C32.30429514 401.44821106 34.24844412 398.59181788 36.5 395.6875 C39.7544353 391.57159654 42.87555533 388.28938985 47 385 C48.12512217 381.62463349 48.16798419 378.99327988 48.1875 375.4375 C48.20167969 374.28121094 48.21585938 373.12492187 48.23046875 371.93359375 C48.0495555 368.84580318 47.6768735 366.31617807 47.00390625 363.3359375 C44.82781566 353.11714027 45.73515105 342.38312421 46 332 C46.0103125 330.74316406 46.020625 329.48632812 46.03125 328.19140625 C46.8063291 317.76936048 53.25596487 308.7889614 58.34326172 299.94238281 C61.01371564 295.19963147 63.4637357 290.34730775 65.9375 285.5 C70.4975396 276.63023143 75.40502524 268.02269698 80.63647461 259.53125 C85.66018981 251.26936169 89.09992742 242.82878796 91.375 233.4375 C91.56449219 232.74720703 91.75398437 232.05691406 91.94921875 231.34570312 C93.82228581 223.6604089 91.92545711 217.78565142 88.58203125 210.78125 C77.27830041 186.08072932 80.60710897 159.71772189 81.85571289 133.24591064 C82.06217507 128.60129763 82.2046028 123.95605881 82.328125 119.30859375 C82.34935425 118.52540268 82.3705835 117.74221161 82.39245605 116.93528748 C82.46972071 114.02443488 82.5430371 111.11350245 82.61376953 108.20248413 C82.77447517 101.61638088 82.96988228 95.06108468 83.484375 88.4921875 C84.24590062 77.00878016 84.24590062 77.00878016 79.16235352 67.02856445 C77.07442884 64.70740907 74.87008824 62.56547333 72.56005859 60.46679688 C70.28175396 58.32469136 68.36143162 55.91082186 66.375 53.5 C59.424226 45.17080247 49.15507684 41.64548315 39.1875 38.25 C36.99330305 37.48490975 34.79928577 36.71930399 32.60546875 35.953125 C31.64793701 35.62473633 30.69040527 35.29634766 29.70385742 34.95800781 C27 34 27 34 24.4621582 32.87792969 C21.81508936 31.93406657 19.78806993 31.84068172 17 32 C15.19891461 39.98004457 14.17352366 48.0323185 13.16854858 56.1423645 C10.76998841 75.40640088 7.75355627 94.55499968 4.59130859 113.70703125 C4.4198381 114.7534227 4.24836761 115.79981415 4.07170105 116.87791443 C3.74877951 118.84617779 3.42241243 120.81388012 3.09199524 122.78089905 C2.94779648 123.66023605 2.80359772 124.53957306 2.6550293 125.44555664 C2.52799118 126.20808243 2.40095306 126.97060822 2.27006531 127.75624084 C1.97714317 130.1898993 1.95474456 132.55109521 2 135 C-5.17788679 137.56799795 -11.5622748 138.44599944 -19.16015625 138.3984375 C-20.19007187 138.40130768 -21.21998749 138.40417786 -22.28111267 138.40713501 C-24.44335485 138.40916325 -26.6056159 138.4037209 -28.76782227 138.39111328 C-32.05722432 138.3750258 -35.34540092 138.39101349 -38.63476562 138.41015625 C-40.74739851 138.40817392 -42.86003065 138.40433046 -44.97265625 138.3984375 C-45.94477554 138.40451019 -46.91689484 138.41058289 -47.91847229 138.4168396 C-54.12538367 138.35359277 -59.24512758 137.3376722 -65 135 C-65.03738281 134.319375 -65.07476562 133.63875 -65.11328125 132.9375 C-65.51321326 127.04046333 -66.25429798 121.3418404 -67.40600586 115.54272461 C-68.82989369 108.17878721 -69.94584467 100.79809025 -70.92282295 93.36047554 C-71.20101816 91.24325423 -71.48468045 89.12682046 -71.76951599 87.01048279 C-72.37181069 82.52843436 -72.96757699 78.04553198 -73.5625 73.5625 C-74.25683362 68.33275794 -74.95398654 63.1034173 -75.65742302 57.87489128 C-75.93420695 55.80767567 -76.20631756 53.739882 -76.47816467 51.67201233 C-77.37083367 45.02204917 -78.41206078 38.52038364 -80 32 C-83.43297788 32 -85.10098204 32.20625637 -88.203125 33.28515625 Z M-182 151 C-182 154.63 -182 158.26 -182 162 C-181.67 162 -181.34 162 -181 162 C-181 158.37 -181 154.74 -181 151 C-181.33 151 -181.66 151 -182 151 Z M-181 169 C-180 173 -180 173 -180 173 Z " fill="#B71C1B" transform="translate(289,55)"/>
<path d="M0 0 C0.66575043 0.21105881 1.33150085 0.42211761 2.01742554 0.63957214 C4.12574647 1.30917457 6.23092414 1.98804798 8.3359375 2.66796875 C34.97183243 11.29334122 34.97183243 11.29334122 62.69921875 14.2265625 C63.91884811 14.23559097 65.13847748 14.24461945 66.39506531 14.25392151 C68.96753515 14.26835797 71.54004116 14.27729419 74.11254883 14.28100586 C77.97478215 14.29281992 81.83537223 14.34200718 85.69726562 14.39257812 C108.17947169 14.54355152 127.4104554 10.2577995 148.2668457 2.28051758 C167.77904283 -5.12197429 167.77904283 -5.12197429 176.97143555 -1.17358398 C178.92142595 0.09838472 180.56862731 1.46007586 182.2734375 3.04296875 C182.84900391 3.52572266 183.42457031 4.00847656 184.01757812 4.50585938 C188.49963188 8.34835655 193.00714255 12.22510915 193.7734375 18.35546875 C193.88816406 19.08765625 194.00289062 19.81984375 194.12109375 20.57421875 C193.46974242 24.19697284 191.49574375 25.53479688 188.7109375 27.85546875 C186.22612381 29.4158568 183.64804556 30.73460193 181.0234375 32.04296875 C179.51594818 32.81580186 178.00947282 33.59061531 176.50390625 34.3671875 C175.72321777 34.76856934 174.9425293 35.16995117 174.13818359 35.58349609 C169.20355284 38.16943718 164.36237324 40.92722935 159.51293945 43.66870117 C158.79710693 44.07064697 158.08127441 44.47259277 157.34375 44.88671875 C156.71355957 45.24314453 156.08336914 45.59957031 155.43408203 45.96679688 C144.16606706 51.77801457 125.92724025 50.00330775 113.3984375 50.23046875 C112.34450806 50.26926147 112.34450806 50.26926147 111.26928711 50.30883789 C106.27685826 50.32788124 103.48374013 49.07329051 99.7109375 45.85546875 C97.65625 42.9453125 97.65625 42.9453125 95.8359375 39.79296875 C92.98387725 35.35823113 91.07146341 32.40798108 85.8515625 31.11328125 C79.28876577 30.32287142 73.22860121 29.68656728 67.7109375 33.85546875 C65.84873526 36.30999619 64.14206181 38.83484895 62.4453125 41.40625 C59.56574606 45.47266477 56.50740123 48.25664751 51.7109375 49.85546875 C46.04435559 50.16626342 40.38062486 50.00716934 34.7109375 49.85546875 C33.66019043 49.83178223 32.60944336 49.8080957 31.52685547 49.78369141 C17.62383721 49.38829735 5.82397159 48.7018489 -6.08642578 41.20214844 C-8.74088415 39.57922754 -11.45756411 38.09849149 -14.19140625 36.61328125 C-32.51149764 26.58728277 -32.51149764 26.58728277 -36.2890625 21.85546875 C-37.11034994 17.68059091 -37.2648229 15.50306419 -35.09765625 11.84375 C-24.90216371 -0.66108302 -15.20600144 -4.88062615 0 0 Z " fill="#E7B009" transform="translate(176.2890625,261.14453125)"/>
<path d="M0 0 C0.56033936 0.46083984 1.12067871 0.92167969 1.69799805 1.39648438 C2.31352539 1.89277344 2.92905273 2.3890625 3.56323242 2.90039062 C4.18907227 3.42503906 4.81491211 3.9496875 5.4597168 4.49023438 C6.10489258 5.01488281 6.75006836 5.53953125 7.41479492 6.08007812 C9.00113818 7.37265412 10.57539985 8.68003243 12.1472168 9.99023438 C11.68230937 14.53657986 11.68230937 14.53657986 9.328125 16.5324707 C8.54268311 16.95810303 7.75724121 17.38373535 6.94799805 17.82226562 C6.07449707 18.30719482 5.20099609 18.79212402 4.30102539 19.29174805 C3.36339355 19.79037354 2.42576172 20.28899902 1.4597168 20.80273438 C-0.45832779 21.85728396 -2.37629631 22.9119719 -4.29418945 23.96679688 C-5.2392334 24.47887695 -6.18427734 24.99095703 -7.15795898 25.51855469 C-10.80183596 27.50852483 -14.39018796 29.5886 -17.9777832 31.67773438 C-22.82373917 34.48420528 -26.50404162 36.05692774 -32.0871582 36.52539062 C-33.1296875 36.61296631 -34.1722168 36.70054199 -35.24633789 36.79077148 C-40.77990883 37.22265406 -46.3141753 37.6283367 -51.8527832 37.99023438 C-52.6984082 38.04663086 -53.5440332 38.10302734 -54.4152832 38.16113281 C-56.4760569 38.28367014 -58.53954294 38.35814095 -60.6027832 38.42773438 C-61.71137695 38.46769531 -62.8199707 38.50765625 -63.9621582 38.54882812 C-67.91849475 37.78429282 -69.26379193 36.0163832 -71.8527832 32.99023438 C-72.60301758 32.16523438 -73.35325195 31.34023438 -74.1262207 30.49023438 C-74.81973633 29.66523438 -75.51325195 28.84023438 -76.2277832 27.99023438 C-76.93676758 27.16523438 -77.64575195 26.34023438 -78.3762207 25.49023438 C-79.8527832 22.99023438 -79.8527832 22.99023438 -79.5793457 20.17773438 C-79.33958008 19.45585937 -79.09981445 18.73398437 -78.8527832 17.99023438 C-77.3387793 17.76980469 -77.3387793 17.76980469 -75.79418945 17.54492188 C-55.35242259 14.43364103 -35.73511389 9.33024859 -16.33398438 2.24194336 C-15.16971924 1.82114502 -14.0054541 1.40034668 -12.8059082 0.96679688 C-11.77626953 0.58604004 -10.74663086 0.2052832 -9.68579102 -0.18701172 C-6.10852027 -1.22591231 -3.36499504 -1.83392008 0 0 Z " fill="#84D3F5" transform="translate(351.852783203125,267.009765625)"/>
<path d="M0 0 C3.34383608 0.99983009 6.64062244 2.10553962 9.9375 3.25 C11.82790164 3.88868231 13.71852847 4.5266985 15.609375 5.1640625 C18.11401922 6.0143831 20.61756924 6.86669657 23.11523438 7.73730469 C34.24920151 11.61073519 45.5149859 13.7865844 57.09375 15.88671875 C61.78970677 16.74440385 66.38717752 17.77401927 71 19 C70.54730649 23.91495806 68.04908825 27.02200064 65.0625 30.75 C64.60681641 31.33910156 64.15113281 31.92820312 63.68164062 32.53515625 C60.29051857 36.85474072 60.29051857 36.85474072 58 38 C54.17330292 38.27842297 50.35693106 38.16637297 46.52392578 38.05810547 C44.69973451 38.01610919 42.87496196 37.99720649 41.05029297 37.99267578 C22.62738897 37.87779532 10.34214096 34.00876243 -5 24 C-6.63582106 22.98910294 -8.27504897 21.98369378 -9.91796875 20.984375 C-13.64619262 18.70669984 -17.33288027 16.37469644 -21 14 C-20.7944211 10.20364294 -20.03891382 9.03913941 -17.3046875 6.2890625 C-16.17249531 5.38701218 -15.02876064 4.49929418 -13.875 3.625 C-13.318125 3.16222656 -12.76125 2.69945312 -12.1875 2.22265625 C-7.7623884 -1.19304049 -5.30762674 -1.4266002 0 0 Z " fill="#84D3F5" transform="translate(169,267)"/>
<path d="M0 0 C1.42662868 11.50673016 2.5809643 23.00929101 3.5078125 34.56640625 C3.63930055 36.18205669 3.77096742 37.79769258 3.90280151 39.41331482 C4.17532635 42.76179382 4.44565737 46.11044034 4.71435547 49.45922852 C5.0574382 53.73269894 5.40626519 58.00567839 5.75671577 62.27855015 C6.02842385 65.59933411 6.29705887 68.92036128 6.564785 72.24146843 C6.6922077 73.81748103 6.82057839 75.3934173 6.94995499 76.96927071 C7.13008475 79.16880931 7.30603942 81.36864507 7.48095703 83.56860352 C7.58151398 84.81416519 7.68207092 86.05972687 7.78567505 87.34303284 C8.01435185 91.2448817 8.03585267 95.09254828 8 99 C-1.9222395 99.61586314 -1.9222395 99.61586314 -5.625 97.5 C-9.02827372 91.31222959 -8.27385907 82.60142221 -8.53515625 75.6796875 C-8.5784053 74.59442276 -8.62165436 73.50915802 -8.66621399 72.39100647 C-8.80353121 68.88584656 -8.93422695 65.3805021 -9.0625 61.875 C-9.127789 60.09320847 -9.127789 60.09320847 -9.19439697 58.27542114 C-10.22638508 29.69273411 -10.22638508 29.69273411 -10.375 15.9375 C-10.40086182 14.74688965 -10.42672363 13.5562793 -10.45336914 12.32958984 C-10.4558667 11.26047363 -10.45836426 10.19135742 -10.4609375 9.08984375 C-10.46915527 8.19128662 -10.47737305 7.29272949 -10.48583984 6.36694336 C-9.23509879 0.27350895 -5.51384625 -0.20312991 0 0 Z " fill="#851414" transform="translate(106,200)"/>
<path d="M0 0 C3.56346831 -0.32395166 5.38623972 -0.43997862 8.34619141 1.68188477 C10.30872459 4.43273398 10.49158531 5.73871573 10.4609375 9.08984375 C10.45852051 10.15879883 10.45610352 11.22775391 10.45361328 12.32910156 C10.4276709 13.51987305 10.40172852 14.71064453 10.375 15.9375 C10.36065918 17.19916992 10.34631836 18.46083984 10.33154297 19.76074219 C10.26581671 24.50846034 10.13528098 29.25382279 10 34 C9.97123779 35.02949768 9.94247559 36.05899536 9.9128418 37.11968994 C9.6794561 45.33085608 9.40975268 53.54046985 9.125 61.75 C9.06659943 63.50822586 9.06659943 63.50822586 9.00701904 65.30197144 C8.89145886 68.69651485 8.76398326 72.09040274 8.6328125 75.484375 C8.5826297 77.00331108 8.5826297 77.00331108 8.53143311 78.55293274 C7.99988082 91.41460441 7.99988082 91.41460441 6 97 C1.52771369 99.9815242 -2.77492569 99.12294292 -8 99 C-8.20859537 90.10926003 -7.5522881 81.34517953 -6.7578125 72.5 C-6.62771401 71.01427374 -6.49799169 69.52851449 -6.36862183 68.04272461 C-6.09744851 64.93951464 -5.82318376 61.83660005 -5.54638672 58.73388672 C-5.19688306 54.81570828 -4.85291658 50.89707055 -4.51097488 46.97822571 C-3.14257663 31.30461945 -1.75101351 15.63647231 0 0 Z " fill="#861414" transform="translate(406,201)"/>
<path d="M0 0 C1.82421875 2.40625 1.82421875 2.40625 3.6875 5.5 C4.31011719 6.5209375 4.93273437 7.541875 5.57421875 8.59375 C6.04472656 9.3878125 6.51523437 10.181875 7 11 C5.34618988 12.34924707 3.67506796 13.67723665 2 15 C1.40461426 15.48017578 0.80922852 15.96035156 0.19580078 16.45507812 C-10.52146481 24.79914166 -20.36712769 28.23351066 -33.8125 28.375 C-35.10534912 28.41270508 -36.39819824 28.45041016 -37.73022461 28.48925781 C-46.62235732 28.27256123 -46.62235732 28.27256123 -50.43896484 24.74707031 C-55 18.40575646 -55 18.40575646 -55 15 C-54.38406982 14.86537354 -53.76813965 14.73074707 -53.13354492 14.59204102 C-38.99347926 11.45746678 -25.28048947 7.66202094 -11.59838867 2.89672852 C-10.51662354 2.52088623 -9.4348584 2.14504395 -8.3203125 1.7578125 C-7.36398926 1.4189502 -6.40766602 1.08008789 -5.42236328 0.73095703 C-3 0 -3 0 0 0 Z " fill="#DFF3FB" transform="translate(342,268)"/>
<path d="M0 0 C5.17498946 0.62751841 9.51637453 2.27822412 14.3125 4.1875 C27.44838547 9.24138263 41.21185233 12.28457591 55 15 C53.49023515 19.52929456 51.76690826 23.94991265 48 27 C43.4280353 28.31108685 38.98600224 28.37736652 34.25 28.375 C33.59247742 28.38168701 32.93495483 28.38837402 32.25750732 28.39526367 C16.41457704 28.4048669 5.44387008 21.42059426 -7 12 C-6.20994338 10.56161448 -5.41788955 9.12432585 -4.625 7.6875 C-4.18414062 6.88699219 -3.74328125 6.08648437 -3.2890625 5.26171875 C-2.26486665 3.46472057 -1.14732862 1.72099292 0 0 Z " fill="#DFF4FC" transform="translate(170,268)"/>
</svg>
