<?xml version="1.0" encoding="UTF-8"?>
<svg version="1.1" xmlns="http://www.w3.org/2000/svg" width="512" height="512">
<path d="M0 0 C1 1 1 1 1.125 4.4375 C1 8 1 8 0 10 C-2.49982365 10.65471572 -4.97401695 11.21939074 -7.5 11.75 C-17.3974963 14.03985005 -25.335565 18.24917413 -31 27 C-37.51146299 38.88835289 -34.21675361 54.57128206 -30.6328125 66.91943359 C-25.34843253 84.29346374 -17.23290885 101.97041512 -7 117 C-3.62539766 118.68730117 0.20207913 118.14408379 3.91404724 118.14044189 C5.31613571 118.14489858 5.31613571 118.14489858 6.74654919 118.1494453 C9.89801762 118.15815977 13.04944819 118.15964285 16.20092773 118.16113281 C18.45248496 118.16575898 20.7040414 118.17078336 22.95559692 118.17617798 C29.08564942 118.18932186 35.21569095 118.1957506 41.34575534 118.20018864 C45.1713779 118.20311565 48.99699744 118.2072197 52.82261848 118.21169281 C63.40924549 118.22380362 73.99586986 118.23418547 84.58250332 118.2375679 C85.26026137 118.23778747 85.93801942 118.23800703 86.63631559 118.23823325 C87.3157161 118.23845153 87.99511661 118.23866981 88.69510502 118.2388947 C90.07188316 118.23933817 91.44866131 118.23978473 92.82543945 118.24023438 C93.84983873 118.24056652 93.84983873 118.24056652 94.89493293 118.24090537 C105.96673602 118.24485539 117.03847338 118.26231547 128.11025106 118.2855939 C139.47034853 118.3092863 150.83040187 118.32151057 162.19052845 118.32293582 C168.57174883 118.32398654 174.95287651 118.32995095 181.33407402 118.34775543 C187.33320997 118.36416798 193.33218284 118.36642492 199.33133316 118.35761642 C201.53767011 118.35684243 203.74401559 118.36123609 205.95033073 118.37107468 C208.95340764 118.38368482 211.95589731 118.37797726 214.95896912 118.36749268 C215.83989351 118.37554908 216.72081791 118.38360548 217.62843698 118.39190602 C221.96433636 118.51839174 221.96433636 118.51839174 225.66404682 116.60640788 C227.26107314 114.68607437 228.43084908 112.71564187 229.63671875 110.52734375 C230.127771 109.63692383 230.61882324 108.74650391 231.12475586 107.82910156 C250.16295249 73.04274756 250.16295249 73.04274756 252.46875 34.30078125 C249.92920795 26.17148632 245.55296992 20.04772421 238 16 C234.11501134 14.49017682 230.15811878 13.21619015 226.17138672 12.00390625 C225.40584473 11.77058594 224.64030273 11.53726563 223.8515625 11.296875 C223.15885254 11.09416992 222.46614258 10.89146484 221.75244141 10.68261719 C220 10 220 10 218 8 C217.8125 4.4375 217.8125 4.4375 218 1 C219.60646159 -0.60646159 221.27171603 -0.17072075 223.5 -0.1875 C244.89728984 0.08895077 267.92043067 4.43385297 283.9375 19.71484375 C297.84131548 35.11963931 299.76591341 51.91320201 299.17919922 71.77099609 C297.98115512 93.35864078 290.51849492 114.10465139 282.1484375 133.81640625 C280.61439587 137.47474762 279.13234162 141.14726895 277.72265625 144.85546875 C277.39015869 145.7271167 277.05766113 146.59876465 276.71508789 147.49682617 C274.7854914 154.25140209 277.21017664 159.83914007 280 166 C281.1268328 171.06933868 281.14312953 176.01258305 281.13371277 181.17591858 C281.13597833 182.09067205 281.13824388 183.00542553 281.14057809 183.94789881 C281.14690019 187.0083289 281.14608986 190.0687145 281.14526367 193.12915039 C281.14825636 195.32566383 281.15165915 197.52217674 281.15544128 199.71868896 C281.16427637 205.68389514 281.16661925 211.64908697 281.16725707 217.61429906 C281.16796809 221.34420562 281.17010345 225.07410855 281.17275429 228.80401421 C281.18153003 241.15365714 281.1861742 253.50329242 281.18542381 265.85293836 C281.18536388 266.85083763 281.18536388 266.85083763 281.18530273 267.86889648 C281.18526185 268.53498176 281.18522097 269.20106704 281.18517885 269.88733672 C281.18477293 280.66758736 281.19432939 291.44780298 281.2084411 302.2280435 C281.22283871 313.3148507 281.22952665 324.40164002 281.22884732 335.48845667 C281.2285929 341.70559312 281.23141341 347.92268997 281.24202538 354.13981819 C281.25174288 359.99291546 281.25176054 365.84593558 281.24450874 371.69903564 C281.24346729 373.83989513 281.24579952 375.98075951 281.2518692 378.12161064 C281.30523214 398.25794582 280.5780605 417.80254988 267 434 C266.30390625 434.84304688 265.6078125 435.68609375 264.890625 436.5546875 C255.82605767 446.56221317 243.16708019 452.43855836 230 455 C229.15199546 455.17185192 228.30399092 455.34370384 227.43028927 455.5207634 C223.15716259 456.11775058 218.994614 456.14476662 214.6856842 456.14044189 C213.75600765 456.14341302 212.8263311 456.14638414 211.86848253 456.1494453 C208.75744598 456.15810738 205.64644803 456.15963846 202.53540039 456.16113281 C200.30272337 456.16576288 198.07004714 456.17078779 195.83737183 456.17617798 C189.77286408 456.18928884 183.7083674 456.19574479 177.6438477 456.20018864 C173.8509419 456.20312246 170.0580391 456.20722793 166.26513481 456.21169281 C155.74699724 456.22380051 145.22886144 456.23418206 134.7107172 456.2375679 C134.03811838 456.23778747 133.36551956 456.23800703 132.67253896 456.23823325 C131.99839636 456.23845153 131.32425376 456.23866981 130.6296826 456.2388947 C129.26378254 456.23933815 127.89788248 456.23978472 126.53198242 456.24023438 C125.8544593 456.2404558 125.17693619 456.24067723 124.47888207 456.24090537 C113.51890404 456.24484709 102.55899275 456.26228267 91.59904046 456.2855939 C80.32464329 456.30937858 69.05027832 456.32151572 57.77585214 456.32293582 C51.4546708 456.3239811 45.13358356 456.32982944 38.81242561 456.34775543 C32.85916251 456.36430938 26.9060635 456.36635617 20.95278549 456.35761642 C18.77728649 456.35684987 16.6017784 456.36113795 14.42630196 456.37107468 C-15.13817282 456.49810609 -15.13817282 456.49810609 -28.375 449.25 C-29.04217041 448.89711914 -29.70934082 448.54423828 -30.39672852 448.18066406 C-45.03139258 440.24962031 -55.01103131 428.24513779 -59.84956455 412.17907047 C-62.56638609 400.97976614 -62.4304987 389.966578 -62.40405273 378.50366211 C-62.40976457 376.25670535 -62.41673195 374.00975148 -62.42485046 371.76280212 C-62.44270405 365.69679376 -62.44162856 359.63093066 -62.43590808 353.56490397 C-62.43280585 348.48789076 -62.43891994 343.41090503 -62.44494683 338.33389574 C-62.45976344 325.66967063 -62.45620016 313.0055325 -62.44408352 300.34131397 C-62.43414761 289.37075959 -62.44710513 278.40037378 -62.47101771 267.42984539 C-62.49545957 256.13033097 -62.50460569 244.83089286 -62.49836498 233.53134543 C-62.49500253 227.2013904 -62.49736369 220.87157472 -62.51461601 214.54163933 C-62.53013201 208.58985652 -62.52607778 202.63839486 -62.50731087 196.68662453 C-62.50363834 194.51028376 -62.50669416 192.33391893 -62.51719666 190.1576004 C-62.6058668 170.25507225 -62.6058668 170.25507225 -58.91229343 160.53958988 C-55.0008875 149.65124349 -60.87336795 138.94942897 -65.125 129.01953125 C-77.03833047 101.02829581 -87.410553 66.09691471 -75.55859375 36.38671875 C-68.96580071 21.61759867 -58.60664185 12.41270186 -43.8125 6.25 C-29.92024116 1.23426759 -14.71080915 -0.48232161 0 0 Z " fill="#163750" transform="translate(141,28)"/>
<path d="M0 0 C6.07186477 3.80452286 9.23197934 8.37266524 12.9765625 14.34765625 C13.5435083 15.23606201 14.1104541 16.12446777 14.69458008 17.03979492 C15.85940547 18.86525783 17.02094738 20.69282007 18.17919922 22.52246094 C21.91707503 28.4179369 25.7260881 34.26794833 29.52978516 40.12109375 C30.42828486 41.50717974 31.32368346 42.89527984 32.21630859 44.28515625 C33.54520916 46.35286281 34.88472874 48.41332643 36.2265625 50.47265625 C36.61932373 51.08923096 37.01208496 51.70580566 37.41674805 52.34106445 C39.81660627 55.99582403 42.20495681 58.72908579 45.8515625 61.16015625 C49.99299091 61.83784454 52.01602056 61.69121089 55.57421875 59.4296875 C60.04636536 55.4997878 62.79022666 50.20945159 65.77059937 45.12771606 C66.8676658 43.25770731 67.97843954 41.39648287 69.09301758 39.53686523 C71.70968923 35.16486102 74.30425171 30.77990006 76.89544678 26.39276123 C79.09892989 22.66271671 81.31699533 18.94165035 83.5390625 15.22265625 C84.09013672 14.27729004 84.64121094 13.33192383 85.20898438 12.35791016 C89.76211911 4.74188448 93.86444992 0.51910628 102.4140625 -2.58984375 C103.50847656 -2.9971875 104.60289062 -3.40453125 105.73046875 -3.82421875 C122.85672573 -9.39721852 137.81648792 -3.07637715 153.421875 3.8125 C159.22376771 6.35873643 165.11949857 8.62580748 171.07861328 10.77636719 C176.47954461 12.79207417 180.62891364 14.90295836 183.4765625 20.16015625 C187.41234566 30.53631187 188.98771832 41.29971736 189.04443359 52.33325195 C189.05261108 53.22529327 189.06078857 54.11733459 189.06921387 55.03640747 C189.09389613 57.96957758 189.1105373 60.90269995 189.125 63.8359375 C189.13032368 64.84306479 189.13564735 65.85019207 189.14113235 66.88783836 C189.16778603 72.21615205 189.18718787 77.54444291 189.20166016 82.87280273 C189.21500518 87.2675454 189.24288 91.66182443 189.28369141 96.05639648 C189.33312759 101.38134028 189.35779374 106.70586339 189.36488724 112.03102684 C189.37157709 114.05192861 189.38673964 116.07282182 189.41077805 118.09359169 C189.55433753 130.88876103 189.33335702 140.15458498 180.46875 150.1015625 C179.23554957 151.3230933 177.98771255 152.53000317 176.7265625 153.72265625 C176.06712646 154.36396484 175.40769043 155.00527344 174.72827148 155.66601562 C168.68839114 161.47226898 162.32211166 166.818927 155.609375 171.8359375 C149.30458619 176.82028941 144.830201 183.340188 143.48013306 191.36904907 C142.85732643 197.28200168 142.76524206 203.21954873 142.6640625 209.16015625 C142.60356176 211.82074258 142.53482972 214.48046769 142.44963074 217.14038086 C142.39844214 218.78271242 142.36200107 220.42559034 142.34248352 222.06860352 C142.25286186 225.319612 142.07717158 227.74604134 140.5065918 230.62890625 C137.08015959 233.7990763 133.24966584 233.28812904 128.82261658 233.29386902 C128.10275922 233.29613458 127.38290186 233.29840013 126.64123064 233.30073434 C124.22296244 233.30707746 121.80475023 233.30624479 119.38647461 233.30541992 C117.6553083 233.30841115 115.92414266 233.31181359 114.19297791 233.31559753 C109.48655623 233.32444367 104.78015273 233.32677585 100.07372355 233.32741332 C96.14942626 233.32836171 92.22513323 233.33203905 88.30083758 233.33558542 C79.04715451 233.34373166 69.79348117 233.34616943 60.53979492 233.34545898 C50.98025002 233.34485756 41.42076143 233.35542189 31.86123079 233.37120265 C23.66332734 233.38425554 15.46544236 233.38964386 7.26752859 233.38900357 C2.36693535 233.388748 -2.53360782 233.39163197 -7.43419075 233.40218163 C-12.03964157 233.41182528 -16.64499405 233.41196763 -21.25044823 233.40466499 C-22.94440987 233.40361461 -24.63837752 233.40600873 -26.3323288 233.41202545 C-28.6371619 233.41968439 -30.94165014 233.41514163 -33.24647522 233.40739441 C-34.5386197 233.40793918 -35.83076418 233.40848394 -37.16206455 233.40904522 C-40.1484375 233.16015625 -40.1484375 233.16015625 -42.1484375 231.16015625 C-42.47592163 229.34103394 -42.47592163 229.34103394 -42.58740234 227.11279297 C-42.63440277 226.27787323 -42.6814032 225.44295349 -42.72982788 224.58273315 C-42.77257843 223.67757965 -42.81532898 222.77242615 -42.859375 221.83984375 C-42.97091145 219.92315127 -43.08290543 218.00648537 -43.1953125 216.08984375 C-43.36179667 213.06864577 -43.52282405 210.04735402 -43.67480469 207.02539062 C-43.82516065 204.10829335 -43.99729457 201.19307786 -44.171875 198.27734375 C-44.22992813 196.93783157 -44.22992813 196.93783157 -44.28915405 195.57125854 C-44.82854486 186.93132451 -47.61386376 180.93962369 -54.1484375 175.16015625 C-56.19561275 173.3651887 -58.24942393 171.59509966 -60.3359375 169.84765625 C-61.1858728 169.13198486 -61.1858728 169.13198486 -62.05297852 168.40185547 C-65.529204 165.48536535 -69.03987824 162.61663084 -72.5859375 159.78515625 C-73.38257812 159.14835938 -74.17921875 158.5115625 -75 157.85546875 C-76.29457316 156.83393284 -77.5991253 155.82462216 -78.921875 154.83984375 C-85.14718828 150.06815692 -88.56806558 143.76874863 -90.1484375 136.16015625 C-90.42508448 133.07060984 -90.43226162 129.99916524 -90.4230957 126.89868164 C-90.42820663 125.99677094 -90.43331757 125.09486023 -90.43858337 124.1656189 C-90.45243276 121.19628169 -90.45152482 118.2271781 -90.44921875 115.2578125 C-90.45311075 113.17622289 -90.45744646 111.09463407 -90.46220398 109.01304626 C-90.4696581 104.6495405 -90.4693826 100.28611562 -90.46411133 95.92260742 C-90.45834497 90.37192715 -90.4751829 84.82158363 -90.498456 79.2709589 C-90.51330636 74.96825776 -90.51404933 70.66563537 -90.51094627 66.36291313 C-90.51145473 64.31909969 -90.51660149 62.27528127 -90.52675819 60.231493 C-90.66670453 28.10857071 -90.66670453 28.10857071 -83.77235413 18.67533875 C-76.07988936 11.49794566 -62.80647332 8.07495968 -53.19946289 4.0925293 C-51.20544361 3.2619187 -49.21485546 2.42302319 -47.2277832 1.57592773 C-44.32480846 0.33884151 -41.41209377 -0.87211523 -38.49609375 -2.078125 C-37.62179214 -2.45616776 -36.74749054 -2.83421051 -35.84669495 -3.22370911 C-23.57264713 -8.20735058 -11.55617353 -5.87990327 0 0 Z " fill="#FADACA" transform="translate(201.1484375,239.83984375)"/>
<path d="M0 0 C6.50590252 2.11835184 12.93227871 4.4131486 19.34375 6.80078125 C20.31171509 7.15963913 21.27968018 7.51849701 22.27697754 7.88822937 C25.35183851 9.02825692 28.42599947 10.17015456 31.5 11.3125 C47.94258131 17.43049818 47.94258131 17.43049818 64.44140625 23.39453125 C65.09109375 23.62739334 65.74078125 23.86025543 66.41015625 24.10017395 C103.77873039 37.28211746 138.51818725 26.69859691 173.81256104 12.85766602 C179.37912708 10.67508877 184.9526972 8.5109607 190.53283691 6.36334229 C192.39796354 5.6403263 194.25717351 4.90210608 196.11621094 4.16357422 C197.78925293 3.51412842 197.78925293 3.51412842 199.49609375 2.8515625 C200.95293579 2.27656006 200.95293579 2.27656006 202.43920898 1.68994141 C205.12699144 0.96578532 206.42514524 1.0426384 209 2 C207.10748325 5.37949419 205.27948185 8.61571246 203 11.75 C201.17588421 14.71418816 200.20608921 17.16296118 199.125 20.4375 C196.95577085 26.56287121 194.55375095 31.03656789 188.73046875 34.25390625 C185.84426992 35.56502806 182.92630408 36.78099938 180 38 C154.63668206 49.03069424 143.85541283 68.34000474 130.10595703 91.46484375 C126.77381028 97.06336694 123.41760857 102.64730552 120.04760742 108.22311401 C119.31704977 109.43360723 118.58816181 110.64510998 117.86108398 111.85769653 C113.87931605 118.49787059 109.83333499 124.94263121 105 131 C100.86996359 127.14905153 97.78907737 123.04224042 94.68359375 118.33984375 C94.19013962 117.60150299 93.69668549 116.86316223 93.1882782 116.10244751 C91.59831883 113.71829736 90.01756187 111.32821868 88.4375 108.9375 C87.34556232 107.2948259 86.25360262 105.65216644 85.16162109 104.00952148 C79.11344518 94.88196175 73.28111001 85.68598318 67.76269531 76.22753906 C57.4991955 58.79735165 44.99291484 46.55212553 26.70922852 37.84008789 C15.03583127 32.25088434 15.03583127 32.25088434 12.3125 26.25 C11.90386719 25.36699219 11.49523437 24.48398438 11.07421875 23.57421875 C10.17465288 21.41853182 9.37675167 19.2721943 8.625 17.0625 C6.98267131 12.3660162 4.18801185 8.42648552 1.42578125 4.3203125 C0 2 0 2 0 0 Z " fill="#F2D864" transform="translate(146,162)"/>
<path d="M0 0 C3.42814701 3.42814701 3.12089958 6.74661304 3.1430676 11.3987993 C3.14220112 12.28389322 3.14133463 13.16898715 3.14044189 14.0809021 C3.14341302 15.02167717 3.14638414 15.96245223 3.1494453 16.93173563 C3.15814755 20.09821678 3.15964187 23.26466018 3.16113281 26.43115234 C3.16576011 28.69618816 3.17078465 30.9612232 3.17617798 33.22625732 C3.18931724 39.39204487 3.19575055 45.55782152 3.20018864 51.72362089 C3.20311843 55.57730093 3.20722319 59.43097799 3.21169281 63.28465652 C3.22380662 73.96309254 3.23418562 84.64152492 3.2375679 95.31996727 C3.23789725 96.34538248 3.23789725 96.34538248 3.23823325 97.39151315 C3.23856067 98.41934714 3.23856067 98.41934714 3.2388947 99.46794546 C3.23933816 100.85639723 3.23978472 102.24484901 3.24023438 103.63330078 C3.2404558 104.32201687 3.24067723 105.01073296 3.24090537 105.72031923 C3.24484646 116.85966811 3.26227756 127.99895129 3.2855939 139.13827483 C3.30936245 150.58659483 3.3215149 162.03486721 3.32293582 173.48321497 C3.32398228 179.90609879 3.3298557 186.3288901 3.34775543 192.75175095 C3.36428464 198.80099808 3.36636802 204.85008367 3.35761642 210.8993454 C3.3568485 213.11277068 3.36115627 215.32620481 3.37107468 217.539608 C3.45464 237.36032056 1.88052654 253.62315239 -12.46484375 268.7109375 C-23.93935849 279.07159334 -37.95335812 282.49218508 -53.015625 282.3359375 C-56 282 -56 282 -58 280 C-58.77707146 270.42867043 -57.84742027 260.5686814 -57.25 251 C-57.1571875 249.09541016 -57.1571875 249.09541016 -57.0625 247.15234375 C-56.40403758 236.71571439 -53.36642575 231.84800276 -45.75 225.0625 C-44.88121216 224.2749231 -44.88121216 224.2749231 -43.99487305 223.47143555 C-38.91357859 218.87819506 -33.78070556 214.33932372 -28.5390625 209.9296875 C-19.66647408 202.28274192 -12.22738105 193.73285897 -10.7118969 181.71540642 C-10.59325928 179.32163627 -10.5602718 176.94332433 -10.56420898 174.54663086 C-10.54909523 173.19797188 -10.54909523 173.19797188 -10.53367615 171.82206726 C-10.50534992 168.86953004 -10.49932451 165.9175082 -10.49609375 162.96484375 C-10.48643205 160.88285626 -10.4763381 158.80087074 -10.46583557 156.71888733 C-10.44790505 152.3538035 -10.44231037 147.98889733 -10.4440918 143.6237793 C-10.44433437 139.19273821 -10.4237065 134.7626355 -10.38256836 130.33178711 C-7.9873289 90.81760058 -7.9873289 90.81760058 -23 56 C-25.14097944 54.2688143 -25.14097944 54.2688143 -27.44140625 53.34375 C-28.30266113 52.95832031 -29.16391602 52.57289063 -30.05126953 52.17578125 C-35.96705268 49.81691292 -41.93529638 47.62595092 -47.9375 45.5 C-56.01664768 42.63058232 -63.9940289 39.71532861 -71.73266602 35.99804688 C-80.95617487 31.93799474 -92.52068189 33.29767771 -101.828125 36.34375 C-104 37 -104 37 -107 37 C-105.24285547 30.55713671 -100.4802597 26.54152317 -94.97729492 23.12133789 C-92.0772612 21.52445084 -89.16641381 19.98050473 -86.2109375 18.49047852 C-84.36269417 17.55627999 -82.52895375 16.59725632 -80.6953125 15.63476562 C-70.51839564 10.41741452 -70.51839564 10.41741452 -66 11 C-64.375 12.7578125 -64.375 12.7578125 -63 15.125 C-62.49339844 15.94613281 -61.98679687 16.76726562 -61.46484375 17.61328125 C-60.73974609 18.79470703 -60.73974609 18.79470703 -60 20 C-55.53414509 26.42579124 -49.67342514 30.26262072 -42 32 C-31.78708973 32.83400557 -23.16914361 31.49818242 -15 25 C-10.96555079 20.60591593 -8.35312883 16.18595473 -5.8125 10.8125 C-2.18515498 3.27773246 -2.18515498 3.27773246 0 0 Z " fill="#F2D864" transform="translate(409,192)"/>
<path d="M0 0 C3.30903826 3.05346687 4.87336385 6.66430059 6.75 10.6875 C11.28188484 20.01416908 15.86900082 27.30270751 26 31 C35.20326351 33.81422107 44.5265019 32.16774662 53 28 C58.51522136 24.49995568 61.07781515 19.9666532 64.2890625 14.328125 C66 12 66 12 67.73803711 11.17797852 C71.08001446 10.91502099 72.9814833 12.22835959 75.90234375 13.82421875 C77.03994141 14.44103516 78.17753906 15.05785156 79.34960938 15.69335938 C79.93895264 16.02102295 80.5282959 16.34868652 81.13549805 16.6862793 C82.92129352 17.67849542 84.71619774 18.65217904 86.51367188 19.62304688 C100.30949157 27.17288142 100.30949157 27.17288142 104 33 C104 33.66 104 34.32 104 35 C103.16597656 34.84144531 102.33195312 34.68289062 101.47265625 34.51953125 C97.7598485 33.96407182 94.19122823 33.75832506 90.4375 33.6875 C89.15746094 33.65011719 87.87742187 33.61273438 86.55859375 33.57421875 C75.61217075 34.10233016 65.20612563 39.47676246 55.4375 44 C47.91626967 47.47067625 40.51479235 50.66428389 32.57983398 53.07348633 C24.78780717 55.87189096 19.65144889 61.73133456 16 69 C12.4646917 78.57019004 11.85553728 88.42502305 11.82299805 98.53613281 C11.81314125 99.89666527 11.81314125 99.89666527 11.80308533 101.28468323 C11.78353095 104.25749826 11.77173128 107.23026327 11.76171875 110.203125 C11.75764322 111.22673882 11.7535677 112.25035263 11.74936867 113.30498505 C11.72858615 118.72106213 11.71424963 124.13711445 11.70483398 129.55322266 C11.69377275 135.11540094 11.65935316 140.67717891 11.61966228 146.23921585 C11.5933966 150.54606825 11.58513345 154.85282646 11.58155251 159.15975189 C11.57671405 161.20885682 11.56517942 163.25795832 11.54651451 165.30698395 C11.41036215 181.24079456 12.00089292 194.76071973 23.625 206.875 C28.73633432 211.84591305 34.33576671 216.15348851 39.96044922 220.52294922 C42.12784837 222.2132323 44.28292687 223.91840982 46.4375 225.625 C47.48550781 226.43263794 47.48550781 226.43263794 48.5546875 227.2565918 C53.22345461 230.97260734 56.47242604 234.10082769 57.31176758 240.30419922 C57.52448236 243.08065953 57.62306224 245.8411962 57.6875 248.625 C57.72020996 249.62740723 57.75291992 250.62981445 57.78662109 251.66259766 C57.99189753 258.56488223 58.09275644 265.46981972 58.125 272.375 C58.12975342 273.2304541 58.13450684 274.0859082 58.1394043 274.96728516 C58.12295785 280.87704215 58.12295785 280.87704215 57 282 C40.1999485 283.17929015 27.10524091 279.47730941 13.8125 268.8125 C4.59158789 260.3367121 -1.5265037 247.48904849 -2.09293401 234.94129467 C-2.13168651 232.47675903 -2.13806398 230.0140349 -2.13371277 227.54919434 C-2.13597833 226.60500059 -2.13824388 225.66080684 -2.14057809 224.68800116 C-2.14690164 221.52831641 -2.14608979 218.36867474 -2.14526367 215.20898438 C-2.14825613 212.94200078 -2.15165886 210.67501769 -2.15544128 208.40803528 C-2.16427519 202.2532226 -2.1666191 196.09842383 -2.16725707 189.94360542 C-2.16820667 184.80669492 -2.17188544 179.66978766 -2.17542917 174.5328784 C-2.18310593 163.10823173 -2.18609799 151.68359411 -2.18542381 140.25894552 C-2.18538386 139.57391831 -2.1853439 138.88889109 -2.18530273 138.18310547 C-2.18526185 137.49724033 -2.18522097 136.81137519 -2.18517885 136.10472625 C-2.18477219 124.98348779 -2.19434801 113.86228315 -2.2084411 102.74105448 C-2.2228043 91.31640591 -2.2295282 79.8917807 -2.22884732 68.4671216 C-2.22859214 62.05514798 -2.23145495 55.64321266 -2.24202538 49.23124695 C-2.25169161 43.2033469 -2.25179565 37.17552191 -2.24450874 31.14761925 C-2.24346117 28.93447956 -2.24583598 26.72133522 -2.2518692 24.50820351 C-2.25956742 21.48898209 -2.25495865 18.47002133 -2.24723816 15.45080566 C-2.25238172 14.57356637 -2.25752529 13.69632709 -2.26282471 12.79250479 C-2.23643641 8.12795086 -1.79329526 4.38844237 0 0 Z " fill="#F3D864" transform="translate(91,192)"/>
<path d="M0 0 C-0.33773437 0.72445312 -0.67546875 1.44890625 -1.0234375 2.1953125 C-1.69246094 3.64550781 -1.69246094 3.64550781 -2.375 5.125 C-2.81585938 6.07632813 -3.25671875 7.02765625 -3.7109375 8.0078125 C-12.05396984 27.37376029 -6.28417576 48.64907298 1.0859375 67.37890625 C8.07592993 84.53884759 16.85237874 100.21568944 27.08203125 115.63671875 C27.5817041 116.39130371 28.08137695 117.14588867 28.59619141 117.92333984 C29.46616728 119.21029894 30.35568479 120.48455412 31.27490234 121.73681641 C32.96238209 124.06312248 33.96608577 125.80289166 34.45703125 128.65625 C33.56200893 133.24610803 29.68023797 135.46947531 26 138 C20.63680396 140.95013605 15.17773697 143.59710411 9 144 C8.29101562 144.05027344 7.58203125 144.10054687 6.8515625 144.15234375 C1.70021646 144.36627008 -1.52834126 143.86067705 -6 141 C-7.52165891 138.80746942 -8.59178197 136.95318535 -9.6875 134.5625 C-10.01073242 133.88872314 -10.33396484 133.21494629 -10.66699219 132.52075195 C-16.05868697 120.95724997 -20.49587899 108.92954268 -25 97 C-25.37688965 96.00742188 -25.7537793 95.01484375 -26.14208984 93.9921875 C-28.15567927 88.59274325 -29.86946234 83.2491579 -31.125 77.625 C-31.28967773 76.89732422 -31.45435547 76.16964844 -31.62402344 75.41992188 C-35.93381347 55.97892843 -38.36299249 35.39674226 -27.7109375 17.49609375 C-21.84972144 8.94514155 -11.06777668 -0.98562761 0 0 Z " fill="#F2D864" transform="translate(105,44)"/>
<path d="M0 0 C11.13916788 0.79565485 18.48168405 5.78787973 26 14 C34.38438466 25.80621686 36.90991959 38.77347947 36 53 C35.92910156 54.19753906 35.85820312 55.39507812 35.78515625 56.62890625 C34.00605331 75.79924022 27.33151961 94.48728178 20.12402344 112.22265625 C18.87587582 115.30669781 17.66162381 118.40327322 16.4453125 121.5 C15.56947984 123.68820988 14.69190555 125.87572356 13.8125 128.0625 C13.40862061 129.0925415 13.00474121 130.12258301 12.58862305 131.18383789 C8.70829605 140.65259738 8.70829605 140.65259738 4 143 C1.01411351 143.48331628 -1.4563904 143.71431138 -4.4375 143.6875 C-5.62315552 143.68206177 -5.62315552 143.68206177 -6.83276367 143.67651367 C-16.26004363 143.32440244 -23.68004519 139.630165 -30.88671875 133.57421875 C-33 131 -33 131 -33.5703125 128.58203125 C-32.79008607 125.04963625 -30.96496265 122.56055138 -28.875 119.6875 C-10.78073959 93.59771613 8.43354937 61.28016948 8.3125 28.5 C8.32861328 27.62730469 8.34472656 26.75460938 8.36132812 25.85546875 C8.36724697 17.8650315 6.90369834 10.07566784 2.3125 3.375 C1.87550781 2.72273438 1.43851562 2.07046875 0.98828125 1.3984375 C0.49908203 0.70621094 0.49908203 0.70621094 0 0 Z " fill="#F2D864" transform="translate(395,44)"/>
<path d="M0 0 C59.73 0 119.46 0 181 0 C181 0.66 181 1.32 181 2 C166.5576818 7.63990411 152.06602693 13.12627853 137.5 18.4375 C136.79948517 18.69398315 136.09897034 18.95046631 135.37722778 19.21472168 C96.66468006 33.37503681 68.67572213 28.13263321 31 14 C29.9868573 13.62019989 29.9868573 13.62019989 28.95324707 13.23272705 C24.99603757 11.7456688 21.04561068 10.24209374 17.10296631 8.71682739 C15.28494251 8.01351765 13.46499742 7.31518085 11.64501953 6.61694336 C10.55044434 6.18647705 9.45586914 5.75601074 8.328125 5.3125 C7.3680957 4.93738281 6.40806641 4.56226563 5.41894531 4.17578125 C3 3 3 3 0 0 Z " fill="#EFD564" transform="translate(160,156)"/>
<path d="M0 0 C0.33 0 0.66 0 1 0 C1.08117951 2.41734542 1.14056926 4.83194949 1.1875 7.25 C1.21263672 7.93191406 1.23777344 8.61382812 1.26367188 9.31640625 C1.30937615 12.45476658 1.19535744 14.64270911 -0.32421875 17.421875 C-3.7467556 20.64496331 -7.5722356 20.12793433 -12.02894592 20.13371277 C-12.74880328 20.13597833 -13.46866064 20.13824388 -14.21033186 20.14057809 C-16.62860006 20.14692121 -19.04681227 20.14608854 -21.46508789 20.14526367 C-23.1962542 20.1482549 -24.92741984 20.15165734 -26.65858459 20.15544128 C-31.36500627 20.16428742 -36.07140977 20.1666196 -40.77783895 20.16725707 C-44.70213624 20.16820546 -48.62642927 20.1718828 -52.55072492 20.17542917 C-61.80440799 20.18357541 -71.05808133 20.18601318 -80.31176758 20.18530273 C-89.87131248 20.18470131 -99.43080107 20.19526564 -108.99033171 20.2110464 C-117.18823516 20.22409929 -125.38612014 20.22948761 -133.58403391 20.22884732 C-138.48462715 20.22859175 -143.38517032 20.23147572 -148.28575325 20.24202538 C-152.89120407 20.25166903 -157.49655655 20.25181138 -162.10201073 20.24450874 C-163.79597237 20.24345836 -165.48994002 20.24585248 -167.1838913 20.2518692 C-169.4887244 20.25952814 -171.79321264 20.25498538 -174.09803772 20.24723816 C-175.3901822 20.24778293 -176.68232668 20.24832769 -178.01362705 20.24888897 C-181 20 -181 20 -183 18 C-183.1953125 15.6171875 -183.1953125 15.6171875 -183.125 12.875 C-183.10695312 11.96492188 -183.08890625 11.05484375 -183.0703125 10.1171875 C-183.04710937 9.41851562 -183.02390625 8.71984375 -183 8 C-182.0802473 7.99668985 -181.16049459 7.99337971 -180.2128706 7.98996925 C-157.8549694 7.90882326 -135.49713656 7.81675857 -113.13933086 7.71247292 C-102.32735808 7.66230616 -91.51539304 7.61586376 -80.70336914 7.578125 C-71.28192599 7.54523061 -61.86054218 7.50541363 -52.43916446 7.45720994 C-47.44853227 7.43191951 -42.45793957 7.41014579 -37.46726036 7.39665604 C-32.77316418 7.38385872 -28.07920328 7.36182966 -23.38518143 7.33261681 C-21.65940752 7.32352275 -19.93361181 7.31784656 -18.20781517 7.31578636 C-15.85715375 7.31247668 -13.50687889 7.29703482 -11.15629578 7.2784729 C-9.8390536 7.27294214 -8.52181143 7.26741138 -7.16465282 7.26171303 C-3.84147572 7.24404429 -3.84147572 7.24404429 -1 5 C-0.27034634 2.43717258 -0.27034634 2.43717258 0 0 Z " fill="#EDBFAC" transform="translate(342,453)"/>
<path d="M0 0 C5.32253576 4.94235464 9.6511975 9.04525326 10 16.625 C9.93923308 21.95512711 7.97316646 25.39218108 4.625 29.4375 C0.20487867 33.63661527 -3.74324712 35.51617619 -9.8125 35.75 C-15.06913103 35.58491572 -18.45923496 34.34136588 -22.26171875 30.5625 C-27.11591163 25.20614924 -28.86641556 21.42228024 -28.78125 14.140625 C-27.9580868 8.66342373 -24.78914945 4.71650622 -20.83984375 0.98828125 C-14.85539831 -3.20230094 -6.41239716 -2.96870239 0 0 Z " fill="#1B3A55" transform="translate(179.375,306.5625)"/>
<path d="M0 0 C4.9961892 2.83184813 7.89529949 7.06089848 9.6875 12.4375 C10.53525805 18.57769042 9.63025278 22.66049118 6.04296875 27.71484375 C2.11634784 32.70516023 -0.99956986 34.91805951 -7.453125 35.6953125 C-13.04821901 35.98077648 -16.94251792 34.99218691 -21.3125 31.4375 C-25.89589871 26.88972356 -27.47009844 23.11183831 -27.625 16.6875 C-27.56256819 10.94377372 -26.87934788 7.94299206 -23.3125 3.4375 C-16.34686079 -1.96442429 -8.27462354 -3.68110629 0 0 Z " fill="#1A3954" transform="translate(340.3125,306.5625)"/>
<path d="M0 0 C1.8125 1.125 1.8125 1.125 3.0625 3.625 C4.73361337 11.42352904 4.19865265 16.82529926 0.296875 23.89453125 C-3.27245908 29.25792535 -8.05136928 32.18189194 -14.1875 34.125 C-20.9862322 35.03743214 -26.61825067 34.26149639 -32.1875 30.125 C-36.51967947 26.03639689 -39.93649214 21.68631354 -42.1875 16.125 C-42.1875 15.465 -42.1875 14.805 -42.1875 14.125 C-40.77210937 14.08632812 -40.77210937 14.08632812 -39.328125 14.046875 C-26.04354052 13.46000581 -14.71193085 10.6233721 -4.4375 1.75 C-2.1875 0.125 -2.1875 0.125 0 0 Z " fill="#EED564" transform="translate(146.1875,181.875)"/>
<path d="M0 0 C3.73211529 0.22618881 5.63301715 1.37269566 8.3125 3.8125 C18.00682032 12.56256834 29.45225292 13.33031687 42 14 C39.99177642 21.76865439 36.97241627 27.16255981 30.375 31.875 C24.62197205 34.6001185 17.9135161 35.14373886 11.78125 33.3515625 C5.30959586 30.43931814 1.5605215 25.75692132 -1.875 19.6875 C-3.73526374 13.58996885 -3.95336748 8.3039714 -1.5 2.375 C-1.005 1.59125 -0.51 0.8075 0 0 Z " fill="#EED564" transform="translate(354,182)"/>
<path d="M0 0 C0.495 1.485 0.495 1.485 1 3 C-0.4375 5.6875 -0.4375 5.6875 -2 8 C-9.35912785 7.47434801 -16.21633123 5.79350471 -23.328125 3.9375 C-29.45997372 2.3719216 -34.99820664 1.7612077 -41.3125 1.6875 C-42.12912109 1.65849609 -42.94574219 1.62949219 -43.78710938 1.59960938 C-49.70349767 1.53832408 -54.08062396 2.63628004 -59 6 C-60.89029723 7.79683446 -60.89029723 7.79683446 -62 9.75 C-62.66 10.8225 -63.32 11.895 -64 13 C-66.31 12.67 -68.62 12.34 -71 12 C-70.50898486 5.86231081 -69.08936083 1.77505861 -64.42578125 -2.4140625 C-47.8917569 -15.12111043 -17.48861839 -7.7483742 0 0 Z " fill="#1D3A55" transform="translate(288,404)"/>
<path d="M0 0 C3.94372821 1.50814299 5.06763313 4.54906603 6.8449707 8.14941406 C7.40035774 9.22820831 7.40035774 9.22820831 7.96696472 10.32879639 C8.74588406 11.85112519 9.51614414 13.37791127 10.27832031 14.90869141 C11.44424522 17.24636963 12.63906068 19.56738397 13.83911133 21.88769531 C14.59282875 23.36987237 15.34483938 24.85291885 16.0949707 26.33691406 C16.45113968 27.0298053 16.80730865 27.72269653 17.17427063 28.43658447 C18.98034445 32.0969225 20.08785269 34.90351676 19.63793945 39.00878906 C16.9291461 40.36318574 14.62860678 40.07380357 11.63793945 40.00878906 C11.34137451 39.41042236 11.04480957 38.81205566 10.73925781 38.19555664 C9.35357622 35.4030073 7.96455078 32.61213385 6.57543945 29.82128906 C6.07826416 28.81855957 5.58108887 27.81583008 5.06884766 26.78271484 C1.78978903 20.20337735 -1.64598599 13.78450056 -5.4128418 7.46972656 C-6.36206055 5.00878906 -6.36206055 5.00878906 -5.6550293 2.73535156 C-3.891423 0.38032442 -2.93838379 0.01093352 0 0 Z " fill="#1B3950" transform="translate(225.362060546875,211.9912109375)"/>
<path d="M0 0 C5.71428571 0.71428571 5.71428571 0.71428571 7 2 C6.61332604 7.41002482 5.01480588 11.67735615 2.54296875 16.4296875 C2.19873367 17.10548859 1.8544986 17.78128967 1.49983215 18.47756958 C0.77451963 19.89363691 0.0439396 21.3070175 -0.69165039 22.71777344 C-1.81573558 24.88122732 -2.91337357 27.05678113 -4.00976562 29.234375 C-4.71979842 30.61278166 -5.43133479 31.99041508 -6.14453125 33.3671875 C-6.47072952 34.01815399 -6.7969278 34.66912048 -7.13301086 35.33981323 C-9.47244672 39.75557046 -9.47244672 39.75557046 -12.1003418 40.97314453 C-14.52681467 41.00744758 -15.94828602 40.24568349 -18 39 C-17.50259456 33.55568729 -16.02191232 29.40222203 -13.4375 24.5703125 C-13.0861499 23.89451141 -12.7347998 23.21871033 -12.37280273 22.52243042 C-11.25815582 20.38475521 -10.12914582 18.25504535 -9 16.125 C-8.24127842 14.67234945 -7.48345683 13.21922846 -6.7265625 11.765625 C-1.20314283 1.20314283 -1.20314283 1.20314283 0 0 Z " fill="#1C3A50" transform="translate(274,212)"/>
<path d="M0 0 C2.8100346 1.79363911 4.50940468 3.01880935 6 6 C6.41204834 10.63554388 5.87454146 13.30416098 3 17 C-0.21553446 19.32849047 -3.11021377 19.54457007 -7 19 C-10.94875513 16.54134115 -12.66872408 15.01223197 -14.125 10.5625 C-13.97177911 6.19570474 -12.76736304 4.32083564 -10 1 C-6.79826746 -0.60086627 -3.47422941 -0.49917089 0 0 Z " fill="#F3F4F6" transform="translate(335,314)"/>
<path d="M0 0 C3 1.4375 3 1.4375 5 4 C5.98008902 8.64891781 5.64875004 11.96199994 3.125 16 C0.39737017 18.56718101 -0.5418575 18.94813481 -4.3125 19.375 C-8 19 -8 19 -10.875 16.625 C-13.9265967 12.85538054 -14.47627542 10.85800924 -14 6 C-10.17077352 0.25616028 -6.80952875 -0.88536894 0 0 Z " fill="#F5F6F8" transform="translate(174,314)"/>
</svg>
