<?xml version="1.0" encoding="UTF-8"?>
<svg version="1.1" xmlns="http://www.w3.org/2000/svg" width="595" height="630">
<path d="M0 0 C6.11997616 0.86142522 9.55677855 6.10358004 13.08984375 10.74609375 C21.93825338 23.41727998 23.81325855 34.93150661 25 50 C29.60076614 52.15525823 33.95816901 53.55013762 38.91503906 54.63476562 C51.2674421 57.34148654 62.00311391 61.78407878 72.4375 69 C75.99616211 71.38303267 79.01290086 71.39525277 83.21484375 71.078125 C83.80394531 71.05234375 84.39304687 71.0265625 85 71 C85.33 71.33 85.66 71.66 86 72 C87.20818985 68.37543046 87.5700377 64.77560642 88 61 C88.86486486 53.40540541 88.86486486 53.40540541 90 50 C90.39820384 42.96116149 89.84852614 35.98518839 89 29 C93 29 93 29 94.859375 30.84375 C108.56399098 50.09816914 116.84588577 72.40426271 115.640625 96.23828125 C115.57439887 98.21276917 115.51201839 100.18738914 115.453125 102.16210938 C115.36090064 105.23960693 115.25016524 108.30961319 115.07421875 111.38354492 C114.04767078 122.56948003 114.04767078 122.56948003 117.23614502 132.9704895 C119.75428625 135.76937249 122.54058311 137.85904831 125.70654297 139.87255859 C139.00535665 148.46305988 145.11761865 165.37335397 149 180 C149.28746094 181.04414063 149.57492187 182.08828125 149.87109375 183.1640625 C151.4456582 189.11576543 152.48876625 194.86519503 153 201 C157.81349145 203.56719544 162.68767955 203.54572794 168 203 C172.7336745 201.33444786 175.26906674 199.19393323 178 195 C180.30930925 189.61161176 181.03785129 183.75242102 182 178 C183.98 177.505 183.98 177.505 186 177 C186.33773437 177.81984375 186.67546875 178.6396875 187.0234375 179.484375 C187.69246094 181.10085937 187.69246094 181.10085937 188.375 182.75 C188.81585937 183.81734375 189.25671875 184.8846875 189.7109375 185.984375 C190.89626077 188.87553918 190.89626077 188.87553918 192.09765625 191.0625 C198.1444564 204.04610552 197.11970374 224.92775665 193.32421875 238.3984375 C189.29053817 248.07162411 178.81460387 254.21760854 170 259 C170.63228516 260.53720703 170.63228516 260.53720703 171.27734375 262.10546875 C171.8309603 263.46605181 172.38433286 264.82673416 172.9375 266.1875 C173.21529297 266.86103516 173.49308594 267.53457031 173.77929688 268.22851562 C174.04677734 268.88916016 174.31425781 269.54980469 174.58984375 270.23046875 C174.95903931 271.13381958 174.95903931 271.13381958 175.33569336 272.05541992 C182.45397234 292.89227846 175.34954641 318.97717808 168.015625 338.84375 C165.63451731 346.24350005 166.22910267 351.29726781 168.375 358.5625 C168.84357422 360.20894624 169.30977755 361.85606934 169.7734375 363.50390625 C169.98403809 364.22392822 170.19463867 364.9439502 170.41162109 365.68579102 C176.85761717 391.03915069 171.66783246 419.52348688 159 442 C157.41239506 444.47687143 155.70966175 446.84013891 153.9375 449.1875 C147.62822567 457.64173437 143.83588752 464.09217332 143.6875 474.875 C143.65849609 475.56980469 143.62949219 476.26460938 143.59960938 476.98046875 C143.53605612 482.17228078 144.75306463 485.00423267 148 489 C153.38409742 493.46110929 160.32531346 493.05314241 167 493 C168.32 493 169.64 493 171 493 C171.33 493.33 171.66 493.66 172 494 C171.80087424 496.73797916 171.46151837 499.30258198 171 502 C170.91878906 502.73476563 170.83757813 503.46953125 170.75390625 504.2265625 C168.60611913 515.59272795 157.09035159 524.89054213 148.375 531.6875 C139.84036983 537.45244842 131.07466282 539.16593476 121 540 C121.01047363 540.93682617 121.02094727 541.87365234 121.03173828 542.83886719 C121.06617742 546.3725845 121.09107035 549.906119 121.10986328 553.43994141 C121.11981384 554.95852504 121.13337916 556.47709007 121.15087891 557.99560547 C121.30020934 571.30358277 120.75866097 583.0317103 114.4375 595.0625 C113.99132324 595.92593018 113.54514648 596.78936035 113.08544922 597.67895508 C105.84908942 611.29935813 95.60577076 622.53836459 80.98046875 628.42578125 C78.26544975 629.21297611 75.80009973 629.28718972 73 629 C72.75765625 628.43152344 72.5153125 627.86304688 72.265625 627.27734375 C71.20645805 624.83718604 70.11326583 622.41594146 69 620 C68.71125 619.36964844 68.4225 618.73929688 68.125 618.08984375 C65.47869062 612.90354992 61.63465316 609.44965661 57 606 C56.443125 605.56558594 55.88625 605.13117187 55.3125 604.68359375 C53.46677977 603.41900061 53.46677977 603.41900061 50 603 C46.08523482 604.59294499 42.60252047 606.80716145 39 609 C32.18828106 612.4432865 25.59534169 613.17731895 18.1640625 611.2734375 C12.43298762 609.34214377 7.4414159 607.14532151 3 603 C2.36713298 598.14577532 3.56131596 595.53397227 6.0625 591.4375 C10.08499703 583.75386501 9.36291162 577.62941758 7.37109375 569.40234375 C5.31735466 562.98316892 2.08583012 557.03394964 -1 551.0625 C-1.42724365 550.23282715 -1.8544873 549.4031543 -2.29467773 548.54833984 C-4.45952399 544.47044151 -6.42603234 541.0362179 -10 538 C-10.45246094 538.43828125 -10.90492188 538.8765625 -11.37109375 539.328125 C-28.61232759 555.36345023 -49.43772949 567.3182962 -72 574 C-72.64275879 574.19722656 -73.28551758 574.39445313 -73.94775391 574.59765625 C-82.86984479 577.11724943 -89.80137711 576.26133238 -98.25 572.625 C-99.10698486 572.26776855 -99.96396973 571.91053711 -100.84692383 571.54248047 C-121.82909199 562.67398436 -141.37088776 552.38156632 -159.84619141 539.02612305 C-160.60593262 538.48769775 -161.36567383 537.94927246 -162.1484375 537.39453125 C-162.82052246 536.90831299 -163.49260742 536.42209473 -164.18505859 535.92114258 C-164.78398926 535.61716553 -165.38291992 535.31318848 -166 535 C-169.07365696 535.63171522 -169.07365696 535.63171522 -169.875 537.75 C-171 540 -171 540 -173.5 542.375 C-176.1885165 545.19794233 -177.04497296 547.26671249 -178 551 C-178.66 551 -179.32 551 -180 551 C-182.02773251 556.91073576 -183.88870818 562.83716008 -185.5 568.875 C-185.82581055 570.08144165 -185.82581055 570.08144165 -186.15820312 571.31225586 C-187.93266783 578.14593133 -189.04271247 585.00852831 -189.74804688 592.03271484 C-190.03125 594.31640625 -190.03125 594.31640625 -191 598 C-193.265625 599.625 -193.265625 599.625 -196 600 C-203.1541209 598.60169455 -209.80975193 594.72943341 -216 591 C-218.33912361 596.76426889 -219.30437287 601.60816981 -219.0078125 607.8359375 C-219 610 -219 610 -220 613 C-226.27114875 613.57010443 -229.56878165 612.55253859 -234.82421875 609.09375 C-237.51835224 607.73942796 -239.01812313 607.54302506 -242 608 C-244.41294546 609.55866706 -244.41294546 609.55866706 -246.6875 611.6875 C-256.24711394 619.6702704 -269.27322573 625.80954333 -282 625 C-282.33 624.67 -282.66 624.34 -283 624 C-282.938125 622.7625 -282.87625 621.525 -282.8125 620.25 C-282.73882851 604.68075883 -293.35613564 585.94302623 -304 575 C-306.9284517 572.82864801 -310.0009492 570.92210132 -313.21533203 569.20361328 C-318.69638972 566.14801944 -320.01182575 562.46896729 -321.62890625 556.79223633 C-325.44875922 541.95816787 -326.47718482 526.58241941 -321 512 C-322.7015625 512.05220703 -322.7015625 512.05220703 -324.4375 512.10546875 C-335.23285178 512.34251873 -343.23916112 512.02225377 -352.00756836 504.91064453 C-358.68880854 498.50366185 -361.61963501 489.34845418 -364.375 480.75 C-364.72949219 479.70070313 -365.08398438 478.65140625 -365.44921875 477.5703125 C-367.11326987 472.49463534 -368.19501579 468.38718741 -368 463 C-366.68 463 -365.36 463 -364 463 C-362.32421875 465.30078125 -362.32421875 465.30078125 -360.6875 468.3125 C-358.50149475 471.90808581 -357.28110915 473.81079192 -353.75 476.1875 C-345.93592966 477.88054857 -337.09136317 478.24623964 -330 474 C-322.32941996 466.00342031 -321.66701074 454.77718047 -321.69921875 444.3203125 C-322.03975241 440.56117471 -322.71015707 438.28984293 -325.375 435.625 C-327 434 -327 434 -328.75 431.0625 C-331.03762674 427.94878582 -332.65685944 427.15021666 -336 425.45703125 C-340.66989632 422.05493882 -343.68689346 416.66039571 -347 412 C-348.08474609 410.7625 -348.08474609 410.7625 -349.19140625 409.5 C-356.01080944 400.07361114 -354.05727837 379.68681269 -352.4296875 368.5859375 C-351.07036732 360.63727542 -349.07960685 352.78746393 -347 345 C-347.96679688 345.02320313 -348.93359375 345.04640625 -349.9296875 345.0703125 C-363.30664292 345.25573564 -374.04107733 344.42375373 -384.265625 334.88671875 C-389.28437286 329.50550577 -393.71274875 324.02151748 -394.25 316.5 C-394.12625 315.2625 -394.12625 315.2625 -394 314 C-393.01 313.67 -392.02 313.34 -391 313 C-389.23892402 313.97837554 -387.48020863 314.96284414 -385.7578125 316.0078125 C-380.92209566 318.737306 -375.01500155 318.60198001 -369.69140625 317.5390625 C-365.72618287 316.43218569 -363.46293933 315.49948717 -360.625 312.4375 C-357.0506313 304.87633543 -355.51238276 297.77275342 -355.6875 289.4375 C-355.69442871 288.54981934 -355.70135742 287.66213867 -355.70849609 286.74755859 C-355.82506378 279.50406756 -356.45798732 272.33493417 -357.125 265.125 C-358.7912609 246.33225212 -356.0056035 229.51609924 -344.01879883 214.50488281 C-336.89538672 206.06874451 -328.74110929 200.46352282 -318.84765625 195.703125 C-314.7859457 193.27389894 -312.44152518 190.73312072 -311.25805664 186.08764648 C-311.08584595 184.49545288 -311.08584595 184.49545288 -310.91015625 182.87109375 C-310.76843994 181.68056396 -310.62672363 180.49003418 -310.48071289 179.26342773 C-310.34270264 178.00087158 -310.20469238 176.73831543 -310.0625 175.4375 C-307.1622247 152.01555776 -303.40003288 129.84520983 -285.125 113.3125 C-282 111 -282 111 -279 111 C-278.87753906 109.71609375 -278.75507813 108.4321875 -278.62890625 107.109375 C-277.97547466 101.22272848 -276.6778342 95.52386544 -275.37304688 89.75390625 C-273.9236283 83.91574804 -273.9236283 83.91574804 -274 78 C-275.78752175 75.35549797 -275.78752175 75.35549797 -278.1875 72.8125 C-286.54733382 62.99592904 -291.71362316 51.2407746 -291.234375 38.109375 C-290.25 29.25 -290.25 29.25 -288 27 C-286.33382885 26.95936168 -284.66611905 26.957279 -283 27 C-282.55269531 27.95261719 -282.10539062 28.90523437 -281.64453125 29.88671875 C-281.0344022 31.15390985 -280.42369415 32.42082228 -279.8125 33.6875 C-279.52052734 34.31333984 -279.22855469 34.93917969 -278.92773438 35.58398438 C-275.72918197 42.15305437 -271.24335199 46.19969879 -265 50 C-256.36933393 52.87688869 -248.7307511 50.57872574 -240.5546875 47.2890625 C-221.40546272 40.34483813 -201.47106992 43.75117902 -183.35546875 52.046875 C-180.96000748 53.1875492 -180.96000748 53.1875492 -178 53 C-175.83105419 50.74068144 -174.86444332 48.65617898 -173.7109375 45.73046875 C-172.10627044 41.94473428 -169.82761801 38.94736833 -167.125 35.875 C-166.64667725 35.32295898 -166.16835449 34.77091797 -165.67553711 34.20214844 C-142.23049644 7.50494408 -142.23049644 7.50494408 -133.15625 6.76953125 C-132.4446875 6.84558594 -131.733125 6.92164063 -131 7 C-131.54674263 10.78767485 -132.50589983 13.03180256 -134.8125 16.0625 C-141.72309761 25.97987206 -144.54058865 38.83480312 -142.5390625 50.7421875 C-140.945655 57.35951512 -138.39716756 63.72110873 -134 69 C-133.01 69 -132.02 69 -131 69 C-129.48605438 66.74159732 -129.48605438 66.74159732 -128.0625 63.8125 C-123.78626142 56.14788594 -118.19662018 50.16170965 -112 44 C-111.3090625 43.3090625 -110.618125 42.618125 -109.90625 41.90625 C-93.51749631 26.62859826 -67.40721228 15.61366875 -45 16 C-44.33203125 17.74609375 -44.33203125 17.74609375 -44 20 C-45.07421875 21.97265625 -45.07421875 21.97265625 -46.6875 24.0625 C-51.58260697 30.988677 -54.76162329 38.43173803 -54 47 C-35.5624926 53.67838157 -35.5624926 53.67838157 -16.7734375 50.8984375 C-9.55275106 47.2403805 -5.22813714 40.45311957 -2.328125 33.07421875 C-0.33332339 26.8160303 -0.71548005 20.49870388 -0.875 14 C-0.91811794 11.56256837 -0.95740337 9.12506481 -0.9921875 6.6875 C-1.01651855 5.61886719 -1.04084961 4.55023438 -1.06591797 3.44921875 C-1 1 -1 1 0 0 Z " fill="#CA2032" transform="translate(399,1)"/>
<path d="M0 0 C5.918573 -0.24522643 10.59938761 0.39168542 16.1875 2.3125 C16.95505615 2.57466309 17.7226123 2.83682617 18.51342773 3.10693359 C44.70645742 12.515493 67.28052258 30.07668203 87.55712891 48.76074219 C89.88030137 50.89027825 92.23232226 52.982873 94.58984375 55.07421875 C99.81164129 59.77075242 104.81492794 64.66228237 109.76928711 69.63891602 C111.19337492 71.06839717 112.62278044 72.49240511 114.05273438 73.91601562 C118.7039664 78.5737302 123.2336077 83.27456061 127.51782227 88.27270508 C129.57817523 90.67379176 131.72826457 92.98867697 133.875 95.3125 C138.2028065 100.03013945 142.18293639 104.91070694 146.08984375 109.98046875 C146.72019531 110.64691406 147.35054687 111.31335938 148 112 C148.99 112 149.98 112 151 112 C152.78904843 110.12633441 154.39093446 108.26948645 156 106.25 C156.98881114 105.04516963 157.97974949 103.84208238 158.97265625 102.640625 C159.72893311 101.72313477 159.72893311 101.72313477 160.50048828 100.78710938 C164.03611686 96.57336773 167.81968911 92.58028831 171.56445312 88.55322266 C173.07986415 86.91358916 174.58005727 85.26095577 176.078125 83.60546875 C180.79008192 78.41389137 185.44958821 73.34647561 190.84375 68.84765625 C193.07369536 66.93685162 195.19491117 64.92936119 197.32128906 62.90478516 C205.39090309 55.26668825 214.07047887 48.59569108 223 42 C223.75007324 41.44103027 224.50014648 40.88206055 225.27294922 40.30615234 C239.478004 29.73657195 254.0015239 20.94454954 269.6875 12.75 C271.38024048 11.86356812 271.38024048 11.86356812 273.10717773 10.95922852 C291.91121555 1.25431748 291.91121555 1.25431748 301 0 C303.75035465 8.181258 305.51673794 16.26481482 306.6875 24.8125 C306.80649658 25.66344238 306.92549316 26.51438477 307.0480957 27.39111328 C309.18583776 43.98443052 309.27549936 60.73337844 309.3125 77.4375 C309.31511841 78.57996185 309.31773682 79.72242371 309.32043457 80.89950562 C309.32608546 104.23705794 307.83790938 127.31899523 305.52490234 150.53222656 C305.10836353 154.75446994 304.76537963 158.97671929 304.46270752 163.20846558 C303.09949868 181.90826869 298.62408301 195.46249062 288 211 C286.7789083 212.88221724 285.56277836 214.76766248 284.3515625 216.65625 C278.27748634 226.04330952 271.92865002 235.22108548 265 244 C264.29875 244.89332031 263.5975 245.78664063 262.875 246.70703125 C256.9268422 254.13160678 250.55707569 261.1156447 244 268 C243.42475586 268.60924316 242.84951172 269.21848633 242.25683594 269.84619141 C222.13872185 291.04186626 189.77787364 316.44631996 158.828125 317.2734375 C153.62237772 317.20331927 149.48808234 315.66429593 144.75 313.625 C143.46452271 313.08915283 143.46452271 313.08915283 142.15307617 312.54248047 C122.2375607 304.12482458 103.65064353 294.30583452 85.75 282.1875 C84.95126465 281.64826904 84.1525293 281.10903809 83.32958984 280.5534668 C79.13212633 277.66103285 75.54274251 274.69035678 72 271 C70.48834243 269.7122917 68.97576991 268.4254733 67.4465332 267.15869141 C53.44074352 255.52918982 40.74187684 242.70609054 30 228 C29.14193848 226.84894983 28.28386549 225.69790823 27.42578125 224.546875 C24.87050426 221.08441633 22.42503769 217.55438737 20 214 C19.37617432 213.10909668 19.37617432 213.10909668 18.73974609 212.20019531 C12.46529111 203.14493303 9.52994778 195.23102147 8.26953125 184.31054688 C7.99609817 181.9665517 7.67667947 179.63312145 7.34375 177.296875 C6.83775043 173.72626289 6.35354945 170.15355595 5.8828125 166.578125 C5.22057303 161.58393137 4.51941957 156.59624381 3.8046875 151.609375 C1.2654841 133.83785081 -1.02939792 116.08888639 -2.69140625 98.20947266 C-2.97357362 95.27484271 -3.29268744 92.34726194 -3.625 89.41796875 C-10.68323463 23.36376964 -10.68323463 23.36376964 0 0 Z " fill="#E9BDA8" transform="translate(156,260)"/>
<path d="M0 0 C6.11997616 0.86142522 9.55677855 6.10358004 13.08984375 10.74609375 C21.93825338 23.41727998 23.81325855 34.93150661 25 50 C29.60076614 52.15525823 33.95816901 53.55013762 38.91503906 54.63476562 C51.2674421 57.34148654 62.00311391 61.78407878 72.4375 69 C75.99616211 71.38303267 79.01290086 71.39525277 83.21484375 71.078125 C83.80394531 71.05234375 84.39304687 71.0265625 85 71 C85.33 71.33 85.66 71.66 86 72 C85.99135066 78.93590324 84.28464968 84.97642796 81.625 91.3125 C81.27050781 92.17004883 80.91601562 93.02759766 80.55078125 93.91113281 C66.23425147 127.74684882 43.92382604 157.44738381 19.29736328 184.46704102 C17.86510606 186.04617689 16.44120038 187.6329784 15.03027344 189.23120117 C8.91192593 196.1446418 2.44164037 202.64377273 -4.125 209.125 C-13.03636164 217.90708989 -13.03636164 217.90708989 -21.43017578 227.18066406 C-24.14043536 230.32169896 -27.0217776 233.30189986 -29.875 236.3125 C-34.73550721 241.48139713 -39.38569149 246.73927684 -43.8125 252.2890625 C-45.76841721 254.71300276 -47.78292207 257.07289955 -49.82519531 259.42407227 C-66.24700018 278.42098094 -79.8597289 299.66159515 -93 321 C-96.21693815 318.03581182 -98.33784972 315.03722408 -100.51171875 311.25 C-100.83690994 310.6884874 -101.16210114 310.12697479 -101.49714661 309.54844666 C-102.19861593 308.33627959 -102.89739878 307.12255466 -103.59375 305.90744019 C-105.47941886 302.61893682 -107.38715132 299.34326031 -109.29296875 296.06640625 C-109.88022232 295.0552047 -109.88022232 295.0552047 -110.4793396 294.02357483 C-114.40412775 287.27800613 -118.43697317 280.60046196 -122.5 273.9375 C-122.84844971 273.36560944 -123.19689941 272.79371887 -123.5559082 272.20449829 C-125.32324852 269.30416005 -127.09209068 266.40474258 -128.86181641 263.50585938 C-132.12130205 258.16452075 -135.36466976 252.81339452 -138.60998535 247.46343994 C-141.07171417 243.40606351 -143.53585766 239.35015288 -145.99951172 235.29394531 C-147.29827858 233.1554339 -148.5967958 231.01677085 -149.89501953 228.87792969 C-161.83788954 209.20394185 -173.95369411 189.64178305 -186.1640625 170.1328125 C-188.74703132 166.0056058 -191.32479801 161.87521796 -193.8984375 157.7421875 C-200.67916952 146.85809404 -207.5056399 136.01113366 -214.51757812 125.27441406 C-216.17882422 122.72563794 -217.83171695 120.17154009 -219.484375 117.6171875 C-230.48352859 100.64265021 -241.67406466 83.80575077 -253.5625 67.4375 C-254.12203369 66.65793945 -254.68156738 65.87837891 -255.25805664 65.07519531 C-258.4714308 60.70550983 -261.67620646 57.28348231 -266 54 C-266.09796875 54.63164063 -266.1959375 55.26328125 -266.296875 55.9140625 C-267.61401008 63.79416375 -269.70070553 71.35428779 -272 79 C-282.94529887 70.81449347 -288.61883622 58.15723347 -291 45 C-291.6142446 38.9804029 -290.75094319 33.76781285 -289 28 C-288 27 -288 27 -285.4375 26.9375 C-284.2309375 26.9684375 -284.2309375 26.9684375 -283 27 C-282.55269531 27.95261719 -282.10539062 28.90523437 -281.64453125 29.88671875 C-281.0344022 31.15390985 -280.42369415 32.42082228 -279.8125 33.6875 C-279.37454102 34.62625977 -279.37454102 34.62625977 -278.92773438 35.58398438 C-275.72918197 42.15305437 -271.24335199 46.19969879 -265 50 C-256.36933393 52.87688869 -248.7307511 50.57872574 -240.5546875 47.2890625 C-221.40546272 40.34483813 -201.47106992 43.75117902 -183.35546875 52.046875 C-180.96000748 53.1875492 -180.96000748 53.1875492 -178 53 C-175.83105419 50.74068144 -174.86444332 48.65617898 -173.7109375 45.73046875 C-172.10627044 41.94473428 -169.82761801 38.94736833 -167.125 35.875 C-166.64667725 35.32295898 -166.16835449 34.77091797 -165.67553711 34.20214844 C-142.23049644 7.50494408 -142.23049644 7.50494408 -133.15625 6.76953125 C-132.4446875 6.84558594 -131.733125 6.92164063 -131 7 C-131.54674263 10.78767485 -132.50589983 13.03180256 -134.8125 16.0625 C-141.72309761 25.97987206 -144.54058865 38.83480312 -142.5390625 50.7421875 C-140.945655 57.35951512 -138.39716756 63.72110873 -134 69 C-133.01 69 -132.02 69 -131 69 C-129.48605438 66.74159732 -129.48605438 66.74159732 -128.0625 63.8125 C-123.78626142 56.14788594 -118.19662018 50.16170965 -112 44 C-111.3090625 43.3090625 -110.618125 42.618125 -109.90625 41.90625 C-93.51749631 26.62859826 -67.40721228 15.61366875 -45 16 C-44.33203125 17.74609375 -44.33203125 17.74609375 -44 20 C-45.07421875 21.97265625 -45.07421875 21.97265625 -46.6875 24.0625 C-51.58260697 30.988677 -54.76162329 38.43173803 -54 47 C-35.5624926 53.67838157 -35.5624926 53.67838157 -16.7734375 50.8984375 C-9.55275106 47.2403805 -5.22813714 40.45311957 -2.328125 33.07421875 C-0.33332339 26.8160303 -0.71548005 20.49870388 -0.875 14 C-0.91811794 11.56256837 -0.95740337 9.12506481 -0.9921875 6.6875 C-1.01651855 5.61886719 -1.04084961 4.55023438 -1.06591797 3.44921875 C-1 1 -1 1 0 0 Z " fill="#6D3A30" transform="translate(399,1)"/>
<path d="M0 0 C4.3009231 1.49851167 6.09572595 4.66976159 8.375 8.375 C8.76856689 9.00857422 9.16213379 9.64214844 9.56762695 10.29492188 C10.72806821 12.18731188 11.86676175 14.09122591 13 16 C13.84498047 17.39605469 13.84498047 17.39605469 14.70703125 18.8203125 C22.89133018 33.6341095 26.48887018 51.46424207 25.640625 68.23828125 C25.57439887 70.21276917 25.51201839 72.18738914 25.453125 74.16210938 C25.36090064 77.23960693 25.25016524 80.30961319 25.07421875 83.38354492 C24.04767078 94.56948003 24.04767078 94.56948003 27.23614502 104.9704895 C29.75428625 107.76937249 32.54058311 109.85904831 35.70654297 111.87255859 C49.00535665 120.46305988 55.11761865 137.37335397 59 152 C59.28746094 153.04414063 59.57492187 154.08828125 59.87109375 155.1640625 C61.4456582 161.11576543 62.48876625 166.86519503 63 173 C67.81349145 175.56719544 72.68767955 175.54572794 78 175 C82.7336745 173.33444786 85.26906674 171.19393323 88 167 C90.30930925 161.61161176 91.03785129 155.75242102 92 150 C93.32 149.67 94.64 149.34 96 149 C96.33773437 149.81984375 96.67546875 150.6396875 97.0234375 151.484375 C97.46945312 152.56203125 97.91546875 153.6396875 98.375 154.75 C98.81585937 155.81734375 99.25671875 156.8846875 99.7109375 157.984375 C100.89626077 160.87553918 100.89626077 160.87553918 102.09765625 163.0625 C108.1444564 176.04610552 107.11970374 196.92775665 103.32421875 210.3984375 C99.29053817 220.07162411 88.81460387 226.21760854 80 231 C80.42152344 232.02480469 80.84304688 233.04960937 81.27734375 234.10546875 C81.8309603 235.46605181 82.38433286 236.82673416 82.9375 238.1875 C83.21529297 238.86103516 83.49308594 239.53457031 83.77929688 240.22851562 C84.18051758 241.21948242 84.18051758 241.21948242 84.58984375 242.23046875 C84.83597412 242.83270264 85.08210449 243.43493652 85.33569336 244.05541992 C92.45397234 264.89227846 85.34954641 290.97717808 78.015625 310.84375 C75.63451731 318.24350005 76.22910267 323.29726781 78.375 330.5625 C78.84357422 332.20894624 79.30977755 333.85606934 79.7734375 335.50390625 C79.98403809 336.22392822 80.19463867 336.9439502 80.41162109 337.68579102 C86.85761717 363.03915069 81.66783246 391.52348688 69 414 C67.41239506 416.47687143 65.70966175 418.84013891 63.9375 421.1875 C57.62822567 429.64173437 53.83588752 436.09217332 53.6875 446.875 C53.65849609 447.56980469 53.62949219 448.26460938 53.59960938 448.98046875 C53.53605612 454.17228078 54.75306463 457.00423267 58 461 C63.38409742 465.46110929 70.32531346 465.05314241 77 465 C78.32 465 79.64 465 81 465 C81.33 465.33 81.66 465.66 82 466 C81.80087424 468.73797916 81.46151837 471.30258198 81 474 C80.87818359 475.10214844 80.87818359 475.10214844 80.75390625 476.2265625 C78.60611913 487.59272795 67.09035159 496.89054213 58.375 503.6875 C49.84036983 509.45244842 41.07466282 511.16593476 31 512 C31.01571045 513.40523926 31.01571045 513.40523926 31.03173828 514.83886719 C31.06617742 518.3725845 31.09107035 521.906119 31.10986328 525.43994141 C31.11981384 526.95852504 31.13337916 528.47709007 31.15087891 529.99560547 C31.30020934 543.30358277 30.75866097 555.0317103 24.4375 567.0625 C23.99132324 567.92593018 23.54514648 568.78936035 23.08544922 569.67895508 C15.84908942 583.29935813 5.60577076 594.53836459 -9.01953125 600.42578125 C-11.73455025 601.21297611 -14.19990027 601.28718972 -17 601 C-17.24234375 600.43152344 -17.4846875 599.86304688 -17.734375 599.27734375 C-18.79354195 596.83718604 -19.88673417 594.41594146 -21 592 C-21.433125 591.05447266 -21.433125 591.05447266 -21.875 590.08984375 C-24.52130938 584.90354992 -28.36534684 581.44965661 -33 578 C-33.556875 577.56558594 -34.11375 577.13117187 -34.6875 576.68359375 C-36.53322023 575.41900061 -36.53322023 575.41900061 -40 575 C-43.91476518 576.59294499 -47.39747953 578.80716145 -51 581 C-57.81171894 584.4432865 -64.40465831 585.17731895 -71.8359375 583.2734375 C-77.56701238 581.34214377 -82.5585841 579.14532151 -87 575 C-87.63286702 570.14577532 -86.43868404 567.53397227 -83.9375 563.4375 C-79.91500297 555.75386501 -80.63708838 549.62941758 -82.62890625 541.40234375 C-86.06777576 530.65379993 -92.05995521 518.92005396 -99 510 C-97.66130947 507.00617156 -96.20221044 504.97944329 -93.83984375 502.71484375 C-92.90350098 501.80400024 -92.90350098 501.80400024 -91.94824219 500.87475586 C-91.28469727 500.23546143 -90.62115234 499.59616699 -89.9375 498.9375 C-83.82706805 492.93489069 -78.26058481 486.76906466 -73 480 C-72.17628906 478.99324219 -71.35257812 477.98648437 -70.50390625 476.94921875 C-58.10475786 461.72451494 -47.69004771 445.04612892 -38 428 C-37.2423992 426.67435816 -36.48459534 425.34883234 -35.7265625 424.0234375 C-34.87191406 422.52683594 -34.87191406 422.52683594 -34 421 C-32.46357721 425.0588386 -33.38216608 428.96654981 -34.0390625 433.12109375 C-34.16002792 433.9247084 -34.28099335 434.72832306 -34.40562439 435.55628967 C-34.80385477 438.18469213 -35.21390904 440.8110806 -35.625 443.4375 C-35.90515824 445.25906974 -36.18502262 447.08068471 -36.46459961 448.90234375 C-39.90437454 471.18982945 -43.71453663 493.36179158 -48.44775391 515.41455078 C-49.25832648 519.20940648 -50.04242286 523.00924265 -50.8125 526.8125 C-51.04582031 527.95332031 -51.27914062 529.09414063 -51.51953125 530.26953125 C-52.08665152 533.03036436 -52.08665152 533.03036436 -52 536 C-43.85844239 525.75068149 -36.28410178 515.50140644 -30 504 C-29.48324707 503.05930664 -28.96649414 502.11861328 -28.43408203 501.14941406 C-14.10602642 474.84792768 -3.69686436 447.59088948 5 419 C5.27569824 418.10458496 5.55139648 417.20916992 5.83544922 416.28662109 C9.56806285 404.06048422 12.02702609 391.60625003 14.41357422 379.05712891 C14.95865873 376.21551849 15.52381283 373.37888942 16.09765625 370.54296875 C19.36616425 354.22795945 21.49015081 337.80401576 23.125 321.25 C23.20057129 320.49654297 23.27614258 319.74308594 23.35400391 318.96679688 C23.60078921 316.31287996 23.80570463 313.65830413 24 311 C24.08902588 309.81809082 24.17805176 308.63618164 24.26977539 307.41845703 C25.32417401 291.7483995 25.18733184 276.03335701 25.18530273 260.3359375 C25.18522209 257.05365413 25.19207864 253.77151218 25.20581055 250.48925781 C25.34477057 216.74322356 24.08498597 183.07481965 19.10351562 149.65234375 C18.29277776 144.19310383 17.62168116 138.740199 17.0625 133.25 C15.49956255 118.29094071 13.11204641 103.34834362 9.7734375 88.68359375 C8.74615874 83.79104895 7.94827324 78.86781172 7.125 73.9375 C5.77471914 65.96186744 4.22215532 58.06354605 2.375 50.1875 C2.0658667 48.84449829 2.0658667 48.84449829 1.75048828 47.47436523 C1.55181152 46.65137939 1.35313477 45.82839355 1.1484375 44.98046875 C0.97489746 44.25754639 0.80135742 43.53462402 0.62255859 42.78979492 C0.06845459 40.77808698 0.06845459 40.77808698 -2 39 C-2.61593762 34.6340892 -2.22038267 30.34403724 -1 26.125 C1.1116788 18.57687153 0.10117148 10.56966319 -0.87890625 2.8984375 C-0.93884766 1.95871094 -0.93884766 1.95871094 -1 1 C-0.67 0.67 -0.34 0.34 0 0 Z " fill="#6D3B30" transform="translate(489,29)"/>
<path d="M0 0 C-0.60714237 7.83950769 -1.62924554 15.55107933 -2.875 23.3125 C-3.23677285 25.63394408 -3.59743461 27.95556157 -3.95703125 30.27734375 C-4.13443848 31.42058105 -4.3118457 32.56381836 -4.49462891 33.74169922 C-4.66140137 34.81693848 -4.82817383 35.89217773 -5 37 C-5.14228027 37.91152832 -5.28456055 38.82305664 -5.43115234 39.76220703 C-7.35092469 52.23715005 -8.58090694 64.73907761 -9.625 77.3125 C-9.6875296 78.06432556 -9.7500592 78.81615112 -9.81448364 79.59075928 C-10.23712672 84.72520961 -10.64874804 89.86012154 -11 95 C-11.08439331 96.23083313 -11.16878662 97.46166626 -11.2557373 98.72979736 C-11.91921203 108.87027739 -12.17545486 118.9723736 -12.203125 129.1328125 C-12.21006239 130.72958907 -12.21705748 132.32636539 -12.22410583 133.92314148 C-12.24323566 138.99043065 -12.24802146 144.05767896 -12.25 149.125 C-12.25110464 150.41660852 -12.25110464 150.41660852 -12.2522316 151.73431015 C-12.27004668 177.28124917 -11.9095507 202.59132442 -9 228 C-8.79146466 230.06365065 -8.58432439 232.12744298 -8.37890625 234.19140625 C-7.74605054 240.15399891 -6.90438933 246.07306423 -6 252 C-5.84431549 253.03782623 -5.84431549 253.03782623 -5.68548584 254.09661865 C-2.64750853 274.31183732 0.99214441 294.26613716 6.125 314.0625 C6.33069611 314.856492 6.53639221 315.65048401 6.74832153 316.46853638 C20.21117006 368.00992049 40.69132158 416.86214661 69 462 C67.83218684 453.69616294 66.30146217 445.60275456 64.30859375 437.4609375 C60.68501126 422.18485323 57.78983868 406.786346 54.93823242 391.35107422 C54.19924925 387.35284748 53.44715712 383.35720144 52.69196415 379.36200905 C52.10534685 376.24904482 51.52646492 373.13468028 50.94985771 370.01984787 C50.67538319 368.54337915 50.3982772 367.06739697 50.11842537 365.59193802 C49.73243336 363.55178183 49.35716684 361.50993286 48.98461914 359.46728516 C48.76955215 358.31104645 48.55448517 357.15480774 48.332901 355.96353149 C48.02622304 353.23344118 48.09892416 351.5606998 49 349 C49.45101074 349.73766602 49.45101074 349.73766602 49.91113281 350.49023438 C60.35107415 367.48768988 71.42661736 383.00242456 85.35986328 397.31298828 C86.86613162 398.86230568 88.3546869 400.42658294 89.83984375 401.99609375 C95.36445216 407.71540202 101.17401736 412.69864337 107.58203125 417.38574219 C109.10621361 418.52460715 110.5604425 419.75588607 112 421 C112 424 112 424 110.69140625 425.48046875 C110.13324219 425.98191406 109.57507813 426.48335937 109 427 C105.12709495 431.06999946 102.36581017 434.40017829 101 440 C100.34 440 99.68 440 99 440 C96.97226749 445.91073576 95.11129182 451.83716008 93.5 457.875 C93.28279297 458.67929443 93.06558594 459.48358887 92.84179688 460.31225586 C91.06733217 467.14593133 89.95728753 474.00852831 89.25195312 481.03271484 C88.96875 483.31640625 88.96875 483.31640625 88 487 C85.734375 488.625 85.734375 488.625 83 489 C75.8458791 487.60169455 69.19024807 483.72943341 63 480 C60.66087639 485.76426889 59.69562713 490.60816981 59.9921875 496.8359375 C60 499 60 499 59 502 C52.72885125 502.57010443 49.43121835 501.55253859 44.17578125 498.09375 C41.48164776 496.73942796 39.98187687 496.54302506 37 497 C34.58705454 498.55866706 34.58705454 498.55866706 32.3125 500.6875 C22.75288606 508.6702704 9.72677427 514.80954333 -3 514 C-3.33 513.67 -3.66 513.34 -4 513 C-3.938125 511.7625 -3.87625 510.525 -3.8125 509.25 C-3.73882851 493.68075883 -14.35613564 474.94302623 -25 464 C-27.9284517 461.82864801 -31.0009492 459.92210132 -34.21533203 458.20361328 C-39.69638972 455.14801944 -41.01182575 451.46896729 -42.62890625 445.79223633 C-46.44875922 430.95816787 -47.47718482 415.58241941 -42 401 C-43.7015625 401.05220703 -43.7015625 401.05220703 -45.4375 401.10546875 C-56.23285178 401.34251873 -64.23916112 401.02225377 -73.00756836 393.91064453 C-79.68880854 387.50366185 -82.61963501 378.34845418 -85.375 369.75 C-85.72949219 368.70070313 -86.08398438 367.65140625 -86.44921875 366.5703125 C-88.11326987 361.49463534 -89.19501579 357.38718741 -89 352 C-87.68 352 -86.36 352 -85 352 C-83.32421875 354.30078125 -83.32421875 354.30078125 -81.6875 357.3125 C-79.50149475 360.90808581 -78.28110915 362.81079192 -74.75 365.1875 C-66.93592966 366.88054857 -58.09136317 367.24623964 -51 363 C-43.32941996 355.00342031 -42.66701074 343.77718047 -42.69921875 333.3203125 C-43.03975241 329.56117471 -43.71015707 327.28984293 -46.375 324.625 C-48 323 -48 323 -49.75 320.0625 C-52.03762674 316.94878582 -53.65685944 316.15021666 -57 314.45703125 C-61.66989632 311.05493882 -64.68689346 305.66039571 -68 301 C-69.08474609 299.7625 -69.08474609 299.7625 -70.19140625 298.5 C-77.01080944 289.07361114 -75.05727837 268.68681269 -73.4296875 257.5859375 C-72.07036732 249.63727542 -70.07960685 241.78746393 -68 234 C-68.96679688 234.02320313 -69.93359375 234.04640625 -70.9296875 234.0703125 C-84.30664292 234.25573564 -95.04107733 233.42375373 -105.265625 223.88671875 C-110.28437286 218.50550577 -114.71274875 213.02151748 -115.25 205.5 C-115.1675 204.675 -115.085 203.85 -115 203 C-114.01 202.67 -113.02 202.34 -112 202 C-110.23892402 202.97837554 -108.48020863 203.96284414 -106.7578125 205.0078125 C-101.92209566 207.737306 -96.01500155 207.60198001 -90.69140625 206.5390625 C-86.72618287 205.43218569 -84.46293933 204.49948717 -81.625 201.4375 C-78.0506313 193.87633543 -76.51238276 186.77275342 -76.6875 178.4375 C-76.69442871 177.54981934 -76.70135742 176.66213867 -76.70849609 175.74755859 C-76.82506378 168.50406756 -77.45798732 161.33493417 -78.125 154.125 C-79.7912609 135.33225212 -77.0056035 118.51609924 -65.01879883 103.50488281 C-57.89538672 95.06874451 -49.74110929 89.46352282 -39.84765625 84.703125 C-35.7859457 82.27389894 -33.44152518 79.73312072 -32.25805664 75.08764648 C-32.08584595 73.49545288 -32.08584595 73.49545288 -31.91015625 71.87109375 C-31.76843994 70.68056396 -31.62672363 69.49003418 -31.48071289 68.26342773 C-31.34270264 67.00087158 -31.20469238 65.73831543 -31.0625 64.4375 C-28.1622247 41.01555776 -24.40003288 18.84520983 -6.125 2.3125 C-3 0 -3 0 0 0 Z " fill="#6D3B30" transform="translate(120,112)"/>
<path d="M0 0 C0.495 0.99 0.495 0.99 1 2 C-5.43380845 14.57132309 -14.31912918 22.5035424 -26 30 C-26.79148437 30.56074219 -27.58296875 31.12148438 -28.3984375 31.69921875 C-39.64898479 37.3244924 -58.79130268 34.8016867 -70.6328125 32.1328125 C-76.02470214 30.31883571 -80.49029761 27.42212344 -85 24 C-83.51203305 19.51571604 -79.99509194 17.75524032 -76.125 15.5 C-75.45678223 15.10490234 -74.78856445 14.70980469 -74.10009766 14.30273438 C-65.35462155 9.28630432 -55.91855089 5.98967357 -45.78125 5.7890625 C-44.77610352 5.76271729 -43.77095703 5.73637207 -42.73535156 5.70922852 C-41.13385254 5.6675354 -41.13385254 5.6675354 -39.5 5.625 C-31.0107896 5.34612559 -22.65945678 4.77349779 -14.25 3.5625 C-13.38826172 3.4402002 -12.52652344 3.31790039 -11.63867188 3.19189453 C-7.50744283 2.55498292 -3.8178458 1.79252516 0 0 Z " fill="#F7F7F8" transform="translate(431,369)"/>
<path d="M0 0 C0.94359375 0.27714844 1.8871875 0.55429687 2.859375 0.83984375 C4.15608715 1.20630588 5.45297187 1.57215777 6.75 1.9375 C8.00296875 2.29714844 9.2559375 2.65679687 10.546875 3.02734375 C21.34476652 5.67057761 32.88757557 5.24754757 43.93359375 5.34179688 C59.5593211 5.72662292 74.01021139 12.05552827 86 22 C84.59931245 26.20206264 82.26332025 26.80242104 78.47265625 28.796875 C69.3247513 33.24798831 60.80067738 34.18024 50.6875 34.1875 C49.80126953 34.19974609 48.91503906 34.21199219 48.00195312 34.22460938 C35.63571802 34.25166897 27.89990973 31.46955741 18 24 C17.26652344 23.46375 16.53304687 22.9275 15.77734375 22.375 C9.46283591 17.35352259 1.25978445 8.21859383 0 0 Z " fill="#F7F7F8" transform="translate(192,369)"/>
<path d="M0 0 C-4.00370265 15.61444033 -18.88109052 27.37908993 -32.1015625 35.29296875 C-33.05804688 35.85628906 -34.01453125 36.41960937 -35 37 C-35.99 37.66 -36.98 38.32 -38 39 C-40.1875 38.625 -40.1875 38.625 -42 38 C-41.29875 37.53851563 -40.5975 37.07703125 -39.875 36.6015625 C-30.28539031 30.00870584 -23.731181 22.64515725 -19 12 C-19.53625 12.19335938 -20.0725 12.38671875 -20.625 12.5859375 C-31.63233062 16.24297826 -42.82947532 16.98813235 -54.33691406 17.28735352 C-71.06358602 17.73321595 -84.77945543 20.51963695 -99 30 C-101.1875 29.625 -101.1875 29.625 -103 29 C-103 27.68 -103 26.36 -103 25 C-89.20106188 12.41108681 -71.88316733 6.82791006 -53.625 6.5 C-38.55029428 6.12287785 -24.18509521 5.08099701 -9.52807617 1.32104492 C-6.19229099 0.4668028 -3.47665773 0 0 0 Z " fill="#713F34" transform="translate(450,358)"/>
<path d="M0 0 C7.3441963 1.29783095 14.64286526 2.74421564 21.93359375 4.31640625 C33.2515849 6.41748974 44.93019348 6.26348106 56.3984375 6.4296875 C67.05572499 6.69949225 75.5640811 8.89411633 85 13.75 C85.680625 14.09708008 86.36125 14.44416016 87.0625 14.80175781 C99.10631467 21.06887539 99.10631467 21.06887539 103 25 C103 26.32 103 27.64 103 29 C101.27734375 29.6640625 101.27734375 29.6640625 99 30 C96.87890625 28.9609375 96.87890625 28.9609375 94.5625 27.375 C86.05860027 21.95423776 76.44309006 17.99610821 66.30078125 17.75390625 C65.18171387 17.72248535 64.06264648 17.69106445 62.90966797 17.65869141 C61.72260254 17.62694824 60.53553711 17.59520508 59.3125 17.5625 C30.56713248 16.62685299 30.56713248 16.62685299 19 12 C24.12670317 23.53508212 31.50398662 31.09269708 42 38 C40.4140625 38.7421875 40.4140625 38.7421875 38 39 C35.61685455 37.80542583 33.56619368 36.60795004 31.375 35.125 C30.75616943 34.71588379 30.13733887 34.30676758 29.49975586 33.88525391 C23.86701118 30.07566109 18.8759869 25.73567073 14 21 C13.36578125 20.42765625 12.7315625 19.8553125 12.078125 19.265625 C7.04979321 14.5932813 3.18391302 9.07749963 0 3 C0 2.01 0 1.02 0 0 Z " fill="#713F34" transform="translate(174,358)"/>
<path d="M0 0 C0.66 0 1.32 0 2 0 C2 0.66 2 1.32 2 2 C1.34 2 0.68 2 0 2 C0 1.34 0 0.68 0 0 Z " fill="#516029" transform="translate(1,527)"/>
</svg>
