<svg class="svg-icon" style="width: 1em; height: 1em;vertical-align: middle;fill: currentColor;overflow: hidden;" viewBox="0 0 1024 1024" version="1.1" xmlns="http://www.w3.org/2000/svg"><path d="M522.256856 836.991272c-70.478119 0-140.956238 0.38165-211.434357-0.127216-57.788241-0.413455-101.64624-31.676989-118.120819-82.849955-3.562071-11.099668-5.756561-22.358356-5.756561-34.125913 0.127217-135.644936-0.095413-271.321676 0.159021-406.966611 0.127217-70.732553 61.413921-133.227816 131.955648-133.545859 134.595397-0.572476 269.190794-0.572476 403.786191-0.031804 71.941113 0.318042 132.019256 62.399851 132.019257 134.69081 0.031804 133.545858-1.303972 267.091717 0.636084 400.60577 0.826909 55.81638-41.250054 119.106749-114.145293 121.333044-36.447619 1.113147-72.958847 1.017735-109.406466 1.20856-36.574836 0.190825-73.117868 0.031804-109.692705 0.031804v-0.22263z" fill="#123450" /><path d="M836.386993 505.87769c-213.533435-173.587353-447.326148-162.869336-628.38749 8.714353-3.752896-4.070938-1.781036-9.032394-1.81284-13.389571-0.159021-61.986396-0.190825-124.004597-0.095412-185.990993 0.095413-64.180886 51.4274-117.230301 115.290244-117.516538 131.923844-0.572476 263.879492-0.731497 395.803336-0.159022 68.697084 0.286238 118.725099 51.395596 119.106749 120.156288 0.349846 61.954592 0.095413 123.909184 0.095413 188.185483z" fill="#49B570" /><path d="M304.588875 516.468491c7.028729 10.495388 18.446439 10.972451 29.323477 13.071528 33.617045 6.519862 67.138678 13.453179 100.755723 19.877629 16.41097 3.116812 25.347952-4.198155 25.825014-20.768146 0.318042-11.640339 0.445259-23.312483-0.063608-34.921018-0.38165-8.269093 2.735162-10.113737 10.272758-8.110072 10.177346 2.735162 20.4183 5.533932 30.818275 7.124142 12.721682 1.940057 12.848899 10.081933 8.587136 18.223809-14.057459 26.747337-21.436034 56.03901-33.076374 83.64506-4.548001 10.781626-2.130882 19.559586 7.092338 26.588316 0.826909 0.636084 1.81284 1.144951 2.576141 1.844644 40.423145 36.543032 33.362611 29.291673 73.785756-4.039134 7.283163-6.010995 9.286828-13.484983 5.502128-22.676398-11.672143-28.178526-19.400565-57.883654-33.553437-85.139858-4.039134-7.79203-5.247694-16.124732 8.110072-18.00118 12.976116-1.81284 29.482498-11.354101 37.560767-6.360842 9.127807 5.629344 2.671553 24.171196 3.148616 37.0519 0.795105 21.817685 8.428114 28.878218 29.514303 24.934497 35.23906-6.615275 70.414511-13.421375 105.558157-20.513713 19.527782-3.943721 23.21707-9.096003 23.471504-29.228064 0.095413-6.869708 0.540671-13.707613 0.826909-20.577321 6.583471-2.003665 10.908842 2.703357 15.615865 5.661148 18.700873 11.767556 35.970556 25.538777 53.780911 38.546697 16.220145 11.831164 21.467839 26.047644 16.379166 44.875734-2.576141 11.290493-10.272758 17.905768-20.100258 22.899028-16.02932 8.110072-32.090443 16.188341-47.833525 24.80728-20.768146 11.354101-31.61338 28.719197-31.358946 52.922198 0.318042 30.722862 0.222629 61.445725 0.031804 92.136783-0.222629 34.952822-21.372426 56.516073-56.134422 57.311178-14.280088 0.318042-28.623785-0.477063-42.872069 0.254433-9.859304 0.508867-12.880703-2.957791-12.499053-12.626269 0.731497-18.510048 1.017735-37.083703 0.349846-55.561947-0.98593-27.288008-13.866634-39.437215-40.772991-39.500823-36.543032-0.095413-73.086064-0.127217-109.629096 0.031804-23.407895 0.095413-35.525297 10.431779-38.355871 33.394416-2.480728 20.004845-1.844644 40.168711-0.286238 60.237165 0.763301 9.763891-1.59021 14.757151-12.817095 14.057458-14.248284-0.858714-28.591981 0.063608-42.872069-0.286237-33.903283-0.826909-55.243905-22.00851-55.784576-56.070814-0.508867-30.182191-0.667888-60.396186 0.031804-90.546573 0.636084-27.60605-11.79936-46.306923-35.811535-58.392521-14.661739-7.378576-29.196261-14.947977-43.794391-22.421965-15.902103-8.110072-23.916762-20.354691-20.259279-38.705718 15.234214-25.157126 40.8366-39.214585 62.177222-57.820045 4.738827-4.134547 9.795695-8.046464 15.520452-10.940647 6.138212-3.085008 9.763891-2.671553 9.922912 5.661149 0.095413 9.318632-1.908252 18.859894 1.335777 28.051309z" fill="#CECBCA" /><path d="M784.64155 623.616859c0 43.539957 0.826909 85.934963-0.254433 128.26636-0.858714 33.330807-27.160791 60.746032-60.587011 63.067739 21.658664-20.895363 21.181601-46.275119 20.672733-71.8457-0.413455-21.722272-0.095413-43.444545-0.095413-65.166817 0.031804-32.026835 7.41038-42.331397 40.264124-54.321582zM315.783955 814.696525c-29.069044-1.781036-55.466534-26.429295-57.215765-59.410256-2.289903-43.539957-0.572476-87.27074-0.572476-131.160543 29.80054 8.809765 39.882474 21.881293 39.914278 50.982141 0.031804 22.708203 0 45.448209 0 68.156412 0.031804 39.62804 0.031804 39.62804 17.873963 71.432246zM666.997795 445.767742c-40.00969 9.064199-80.114793 17.746747-119.997267 27.415225-11.735752 2.830574-16.379166 2.576141-16.760816-11.958381-0.413455-16.124732 1.940057-26.524707 19.909432-29.895953 9.859304-1.844644 16.824425-10.399975 24.266609-17.01525 7.823835-3.752896 15.456844-0.731497 23.026245 0.82691 20.036649 4.102742 39.532627 10.145542 58.583346 17.524117 5.470323 2.130882 14.59813 2.735162 10.972451 13.103332z" fill="#CECBC9" /><path d="M467.45821 414.313383c10.336367 9.032394 20.768146 18.319222 34.730193 20.768146 9.445849 1.685623 9.286828 7.378576 9.286828 14.629935 0.063608 27.160791 0.222629 27.256204-26.174861 21.245209-36.797466-8.364506-73.594931-16.888033-110.392397-25.316147-3.721092-5.247694 0.38165-8.269093 3.943721-9.732087 27.574246-11.19508 55.43473-21.62686 85.712334-22.771811 0.954126 0 1.940057 0.731497 2.894182 1.176755z" fill="#CECBCA" /><path d="M521.779793 748.63919c-21.181601 0-42.363202 0.222629-63.544802-0.190825-4.452589-0.095413-12.085598 3.752896-12.817095-4.420785-0.667888-7.378576 3.848309-13.262354 11.640339-14.852564 5.661149-1.144951 11.513122-1.81284 17.301488-1.844644 31.263534-0.159021 62.495264-0.159021 93.758797 0 5.788365 0.031804 11.703948 0.540671 17.301488 1.876449 7.442184 1.81284 12.530857 7.092338 11.385906 14.884368-1.176756 7.982856-8.523527 4.229959-13.039725 4.325372-20.672733 0.445259-41.313663 0.222629-61.986396 0.222629z" fill="#99999A" /><path d="M520.253191 817.876945c-21.181601 0-42.363202-0.095413-63.544802 0.063608-6.996925 0.063608-12.276423-0.254434-12.149206-9.827499 0.095413-9.00059 5.279498-8.682548 11.417709-8.682548 43.444545 0.063608 86.857285 0.063608 130.30183 0 6.233624 0 11.19508-0.190825 11.290493 8.746156 0.127217 9.636674-5.184085 9.827499-12.149207 9.763891-21.754076-0.159021-43.476349-0.063608-65.166817-0.063608z" fill="#979899" /><path d="M521.207317 528.236047c9.763891 26.079448 17.810355 48.02435 26.206666 69.842035 4.357176 11.322297-6.519862 13.421375-11.544927 17.61953-5.247694 4.357176-8.459919 16.442774-19.973041 8.523527-21.849489-15.011585-23.789546-18.382831-17.460509-35.175452 7.124142-18.891698 14.184676-37.847004 22.771811-60.80964z" fill="#CDCAC9" /><path d="M519.48989 781.174892c-21.149797 0-42.299593 0.095413-63.449389-0.063608-4.770631-0.031804-11.19508 2.067273-11.226885-6.774296-0.031804-9.127807 6.678883-6.488058 11.258689-6.519862 43.349132-0.159021 86.730068-0.159021 130.111004 0 4.579806 0.031804 11.226884-2.607945 11.163276 6.58347-0.063608 8.936982-6.456254 6.678883-11.19508 6.710688-22.262944 0.159021-44.462279 0.063608-66.661615 0.063608z" fill="#CECBCA" /><path d="M320.809019 453.050905c14.502718 3.275833 27.2244 6.170016 41.504488 9.414045-13.898438 15.361431-17.174271 31.390751-9.00059 49.614561-9.98652 4.039134-18.60546-2.19449-27.637854-2.385316-4.039134-0.095413-4.834239-3.466658-4.834239-6.837904-0.063608-16.220145-0.031804-32.472094-0.031805-49.805386z" fill="#F8D8C8" /><path d="M826.368668 567.51424c6.010995-28.655589-16.41097-39.723452-33.80787-53.144827-16.633599-12.848899-34.602975-24.012175-51.968072-35.906948-0.858714-4.675218-1.653819-9.318632 1.113147-14.820759 29.323477 16.251949 57.661024 34.062304 81.196137 57.502003 12.02199 11.926577 7.18775 30.40482 3.466658 46.370531z" fill="#A0A5AC" /><path d="M304.588875 516.468491c-7.219555-9.795695-1.017735-21.499643-4.866044-33.42622-30.977296 19.845824-56.993136 44.84393-84.185731 68.410846-3.148616-10.940647 0.763301-18.987111 9.191415-26.333882 24.043979-20.990776 47.610895-42.554027 76.361897-58.551542 4.420785 17.301488 1.844644 33.744262 3.498463 49.900798z" fill="#A1A6AC" /><path d="M721.319378 452.987297v32.885548c0 25.825015 0 25.825015-28.273939 26.810945 9.286828-18.637264 5.565736-35.23906-9.509457-51.045749 13.103333-2.989595 24.203-5.533932 37.783396-8.650744z" fill="#F9D9C9" /><path d="M666.997795 445.767742c-1.144951-7.473988-7.79203-7.378576-12.912508-9.38224-25.793211-10.081933-52.794981-15.933907-79.669534-22.103923 3.244029-7.378576 7.378576-11.290493 16.856229-9.382241 34.539367 6.996925 67.742957 17.683138 101.169177 32.853745-8.682548 5.59754-17.428705 5.724757-25.443364 8.014659z" fill="#A0A5AC" /><path d="M467.45821 414.313383c-26.874554 6.074603-53.780911 11.958381-79.542317 22.072119-5.120477 2.003665-11.735752 1.876448-12.976116 9.286828-7.633009-1.876448-15.266019-3.752896-25.793211-6.329037 34.825605-17.746747 69.078734-28.083113 104.635836-34.921018 8.968786-1.717427 10.5908 4.579806 13.675808 9.891108z" fill="#A0A5AB" /><path d="M627.655993 472.928534c-8.905178 21.944902-2.989595 37.21092 11.322297 51.745442-13.357766 2.79877-25.188931 5.311302-38.514893 8.110072 0-15.743082-1.049539-30.500233 0.286238-45.00295 1.431189-15.80669 16.061124-7.601205 26.906358-14.852564z" fill="#F9D9C9" /><path d="M661.59108 473.151163c10.845234 1.685623 18.032984 7.283163 18.351026 19.336957 0.286238 11.163276-8.841569 20.736342-19.718607 19.782216-11.226884-1.017735-18.382831-6.8061-18.510047-19.177936-0.127217-13.294158 7.537597-18.60546 19.877628-19.941237z" fill="#FBFCFC" /><path d="M406.521353 524.673976c17.365096-13.135137 19.177936-29.641519 14.534522-47.674504 16.856229-1.144951 24.584651 5.152281 21.436034 21.658664-0.095413 0.508867 0 1.049539 0 1.59021-0.031804 35.429885-0.031804 35.429885-35.970556 24.42563z" fill="#F6D7C7" /><path d="M388.64739 512.111315c-13.325962-0.159021-23.21707-9.922912-21.913098-20.322888 1.367581-11.131472 7.505792-18.128397 19.718607-18.032984 11.672143 0.095413 20.036649 8.523527 19.114328 19.973041-0.954126 11.735752-7.951051 17.587726-16.919837 18.382831z" fill="#FCFCFD" /><path d="M462.560363 694.476628c-0.508867-3.848309 1.940057-5.470323 5.343106-5.947386 3.816505-0.508867 7.696618-0.286238 7.919247 4.834239 0.159021 3.466658-2.035469 5.883778-5.311302 6.8061-4.643414 1.303972-6.551666-1.749231-7.951051-5.692953z" fill="#B2B2B4" /><path d="M449.902289 693.776936c0.031804 3.689288-2.067273 5.82017-5.406715 6.519862-4.166351 0.890518-7.41038-0.922322-8.237289-5.056869-0.731497-3.593875 1.908252-5.788365 5.21589-6.488058 4.134547-0.858714 6.965121 1.017735 8.428114 5.025065z" fill="#B3B3B5" /><path d="M555.142405 694.381216c-1.622014 4.770631-4.38898 6.742492-8.555332 5.947386-3.371246-0.636084-5.979191-2.830574-5.37491-6.424449 0.699693-4.229959 3.975526-5.851974 8.141876-5.21589 3.562071 0.572476 4.99326 3.180421 5.788366 5.692953z" fill="#B5B5B7" /><path d="M573.461627 688.497438c3.40305 0.286238 6.360841 1.81284 6.742491 5.279498 0.477063 4.484393-2.735162 6.710687-6.774295 6.678883-3.975526-0.031804-7.251359-2.226294-6.742492-6.710687 0.413455-3.434854 3.339442-5.025064 6.774296-5.247694z" fill="#B3B3B5" /><path d="M621.644998 701.060099c3.689288 0 6.837904 0.763301 6.869708 4.866043 0.031804 4.198155-2.576141 6.8061-6.710687 7.251359-3.880113 0.413455-5.724757-2.480728-6.392645-5.59754-1.113147-5.120477 2.735162-5.947386 6.233624-6.519862z" fill="#B2B2B5" /><path d="M415.712768 724.627015c-0.540671 3.943721-2.130882 7.314967-6.678883 6.901513-3.466658-0.318042-5.406715-3.212225-5.343106-6.583471 0.063608-4.039134 2.035469-7.314967 6.551666-6.933317 3.498463 0.318042 5.088673 3.212225 5.470323 6.615275zM632.426624 743.296083c4.198155 0.890518 6.170016 3.625679 5.692952 7.792031-0.38165 3.371246-2.385315 6.106407-5.97919 5.883778-4.357176-0.286238-6.170016-3.466658-5.756561-7.601205 0.349846-3.466658 2.353511-5.661149 6.042799-6.074604zM409.797186 779.393857c-3.689288-0.445259-5.692953-2.639749-6.042799-6.074604-0.413455-4.134547 1.399385-7.346771 5.788365-7.601205 3.593875-0.222629 5.59754 2.512532 5.979191 5.883778 0.445259 4.198155-1.558406 6.901513-5.724757 7.792031zM632.394819 779.393857c-3.657484-0.445259-5.692953-2.639749-6.010994-6.074604-0.413455-4.134547 1.399385-7.346771 5.788365-7.601205 3.593875-0.222629 5.59754 2.512532 5.947386 5.883778 0.445259 4.198155-1.526602 6.901513-5.724757 7.792031z" fill="#B3B3B5" /><path d="M415.871789 799.46231c-0.254434 3.816505-1.781036 6.360841-5.788365 5.788366-4.134547-0.60428-6.519862-3.275833-6.265429-7.537597 0.222629-3.816505 3.307637-5.438519 6.42445-5.59754 5.025064-0.254434 5.406715 3.7847 5.629344 7.346771z" fill="#B2B2B4" /><path d="M520.889275 688.465633c4.548001 0.031804 6.392645 2.576141 6.138212 6.837905-0.159021 2.830574-1.653819 4.99326-4.61161 5.025064-4.070938 0.031804-6.742492-2.258099-7.155946-6.392645-0.413455-3.943721 2.099078-5.343107 5.629344-5.470324zM501.679535 694.285803c-0.349846 4.357176-2.099078 6.583471-5.947386 5.915582-4.070938-0.699693-6.297233-3.466658-5.947386-7.569401 0.254434-2.957791 2.544336-4.166351 5.406714-4.229959 4.516197-0.095413 6.456254 2.289903 6.488058 5.883778z" fill="#B2B2B5" /><path d="M599.922726 700.328602c-4.293568-0.031804-5.59754-2.448924-5.533932-5.947386 0.063608-3.562071 1.844644-5.692953 5.502128-5.883778 3.40305-0.159021 6.297233 0.922322 6.265428 4.834239 0.031804 4.070938-2.480728 6.424449-6.233624 6.996925z" fill="#B3B2B5" /><path d="M428.466255 707.42094c-0.159021 3.593875-1.685623 5.979191-5.597541 5.533932-4.134547-0.477063-6.392645-3.244029-6.297232-7.283163 0.063608-2.925987 2.289903-4.38898 5.152281-4.516198 4.325372-0.190825 6.774296 1.749231 6.742492 6.265429z" fill="#B2B2B4" /><path d="M632.585645 720.619685c3.943721-0.222629 5.661149 1.876448 5.724757 5.502128 0.095413 3.498463-1.399385 5.915582-5.120477 6.297232-3.307637 0.318042-6.456254-0.508867-6.710688-4.357176-0.254434-4.070938 2.130882-6.615275 6.106408-7.442184z" fill="#B3B2B5" /><path d="M415.744572 748.384756c-0.063608 3.466658-1.20856 6.20182-5.215889 5.947387-4.166351-0.254434-6.488058-2.830574-6.647079-6.965121-0.127217-3.0214 1.971861-4.61161 4.770631-4.866044 4.134547-0.318042 6.965121 1.20856 7.092337 5.883778z" fill="#B2B2B5" /><path d="M626.383825 798.667205c0.159021-4.38898 2.830574-5.438519 6.297232-5.311302 3.689288 0.127217 5.883778 2.003665 5.311303 5.820169-0.508867 3.307637-2.480728 5.883778-6.138212 5.565736-3.562071-0.286238-5.152281-2.925987-5.470323-6.074603z" fill="#B1B1B4" /><path d="M588.982079 443.700469c4.484393 0.222629 7.251359 2.385315 7.760226 6.551666 0.572476 4.802435-3.148616 6.678883-6.8061 7.02873-3.307637 0.318042-6.138212-2.321707-6.519862-5.629345-0.477063-3.943721 1.526602-6.996925 5.565736-7.951051z" fill="#B2B2B5" /><path d="M627.210734 437.244215c3.911917 0.413455 7.251359 1.908252 6.996925 6.456254-0.190825 3.530267-3.085008 5.438519-6.424449 5.470323-4.00733 0.031804-7.314967-1.81284-7.092338-6.360841 0.190825-3.530267 3.085008-5.088673 6.519862-5.565736z" fill="#B5B4B6" /><path d="M549.73569 467.967078c-4.802435-1.622014-6.742492-4.38898-5.979191-8.523527 0.636084-3.339442 2.79877-5.979191 6.392645-5.374911 4.166351 0.699693 5.883778 3.943721 5.21589 8.110072-0.540671 3.530267-3.148616 4.961456-5.629344 5.788366z" fill="#B3B3B5" /><path d="M458.139578 458.266795c-4.452589-0.318042-6.710687-3.0214-6.710687-7.060534 0-4.070938 2.448924-6.869708 6.58347-7.378575 4.070938-0.477063 7.537597 1.367581 7.664814 5.692953 0.127217 4.707022-3.689288 6.996925-7.537597 8.746156z" fill="#B7B6B8" /><path d="M415.871789 434.699879c4.293568 0.763301 6.329037 3.593875 5.979191 7.696618-0.349846 4.134547-3.053204 6.8061-7.219555 6.774295-4.548001-0.031804-6.488058-3.752896-6.233624-7.442184 0.286238-3.880113 3.593875-6.074603 7.473988-7.028729z" fill="#B6B5B7" /><path d="M501.615927 458.902879c0.063608 4.452589-2.19449 6.519862-6.583471 6.360841-2.862378-0.095413-5.120477-1.431189-5.279498-4.357176-0.190825-4.070938 2.035469-6.8061 6.138212-7.378576 3.880113-0.540671 5.565736 1.717427 5.724757 5.374911z" fill="#B2B2B4" /></svg>